STARTFONT 2.1
FONT -Bitstream-Terminal-Medium-R-Normal--50-360-100-100-C-300-ISO8859-1
SIZE 36 100 100
FONTBOUNDINGBOX 30 50 0 -10

STARTPROPERTIES 25
FOUNDRY "Bitstream"
FAMILY_NAME "Terminal"
WEIGHT_NAME "Medium"
SLANT "R"
SETWIDTH_NAME "Normal"
ADD_STYLE_NAME ""
PIXEL_SIZE 50
POINT_SIZE 360
RESOLUTION_X 100
RESOLUTION_Y 100
SPACING "C"
AVERAGE_WIDTH 300
CHARSET_REGISTRY "ISO8859"
CHARSET_ENCODING "1"
CAP_HEIGHT 30
X_HEIGHT 24
COPYRIGHT "Copyright (c) 1991 Digital Equipment Corporation. All Rights Reserved."
_DEC_PRODUCTINFO "DECterm Fonts V2.2, 11-Nov-1991"
FIGURE_WIDTH 30
FULL_NAME "Terminal"
WEIGHT 10
QUAD_WIDTH 30
DEFAULT_CHAR 159
FONT_DESCENT 10
FONT_ASCENT 40
ENDPROPERTIES

CHARS 195

STARTCHAR space
ENCODING 32
SWIDTH 565 0
DWIDTH 30 0
BBX 30 50 0 -10
BITMAP
00000000
00000000
00000000
00000000
00000000
00000000
00000000
00000000
00000000
00000000
00000000
00000000
00000000
00000000
00000000
00000000
00000000
00000000
00000000
00000000
00000000
00000000
00000000
00000000
00000000
00000000
00000000
00000000
00000000
00000000
00000000
00000000
00000000
00000000
00000000
00000000
00000000
00000000
00000000
00000000
00000000
00000000
00000000
00000000
00000000
00000000
00000000
00000000
00000000
00000000
ENDCHAR

STARTCHAR exclam
ENCODING 33
SWIDTH 565 0
DWIDTH 30 0
BBX 30 50 0 -10
BITMAP
00000000
00000000
00000000
00000000
00000000
00000000
00000000
00000000
00000000
00000000
000FC000
000FC000
000FC000
000FC000
000FC000
000FC000
000FC000
000FC000
000FC000
000FC000
000FC000
000FC000
000FC000
000FC000
000FC000
000FC000
000FC000
000FC000
00000000
00000000
00000000
00000000
000FC000
000FC000
003FF000
003FF000
003FF000
003FF000
000FC000
000FC000
00000000
00000000
00000000
00000000
00000000
00000000
00000000
00000000
00000000
00000000
ENDCHAR

STARTCHAR quotedbl
ENCODING 34
SWIDTH 565 0
DWIDTH 30 0
BBX 30 50 0 -10
BITMAP
00000000
00000000
00000000
00000000
00FC3F00
00FC3F00
00FC3F00
00FC3F00
00FC3F00
00FC3F00
00FC3F00
00FC3F00
00FC3F00
00FC3F00
00FC3F00
00FC3F00
00FC3F00
00FC3F00
00000000
00000000
00000000
00000000
00000000
00000000
00000000
00000000
00000000
00000000
00000000
00000000
00000000
00000000
00000000
00000000
00000000
00000000
00000000
00000000
00000000
00000000
00000000
00000000
00000000
00000000
00000000
00000000
00000000
00000000
00000000
00000000
ENDCHAR

STARTCHAR numbersign
ENCODING 35
SWIDTH 565 0
DWIDTH 30 0
BBX 30 50 0 -10
BITMAP
00000000
00000000
00000000
00000000
00000000
00000000
00000000
00000000
01F87E00
01F87E00
01F87E00
01F87E00
01F87E00
01F87E00
01F87E00
01F87E00
01F87E00
01F87E00
01F87E00
01F87E00
01F87E00
7FFFFFF8
7FFFFFF8
7FFFFFF8
01F87E00
01F87E00
01F87E00
01F87E00
01F87E00
01F87E00
7FFFFFF8
7FFFFFF8
7FFFFFF8
01F87E00
01F87E00
01F87E00
01F87E00
01F87E00
01F87E00
01F87E00
01F87E00
01F87E00
01F87E00
01F87E00
01F87E00
01F87E00
00000000
00000000
00000000
00000000
ENDCHAR

STARTCHAR dollar
ENCODING 36
SWIDTH 565 0
DWIDTH 30 0
BBX 30 50 0 -10
BITMAP
00000000
00000000
00000000
00000000
0003C000
0003C000
0003C000
0003C000
0003C000
0003C000
00FFF3C0
00FFF3C0
03F03FC0
03F03FC0
0FC00FC0
0FC00FC0
0FC00FC0
0FC00FC0
0FC00000
0FC00000
0FC00000
0FC00000
0FF00000
0FF00000
03FFFF00
03FFFF00
00003FC0
00003FC0
00000FC0
00000FC0
00000FC0
00000FC0
0FC00FC0
0FC00FC0
0FC00FC0
0FC00FC0
0FF00F00
0FF01F00
0F3FFC00
0F3FFC00
000F0000
000F0000
000F0000
000F0000
000F0000
000F0000
000F0000
000F0000
00000000
00000000
ENDCHAR

STARTCHAR percent
ENCODING 37
SWIDTH 565 0
DWIDTH 30 0
BBX 30 50 0 -10
BITMAP
00000000
00000000
00000000
00000000
00000000
00000000
00000000
00000000
00000000
00000000
07F80000
07F80000
1FFE0000
1FFE0000
7E1F8000
7E1F8000
78078000
78078000
7E1F8000
7E1F8000
1FFE0780
1FFE0780
07F87800
07F87800
00078000
00078000
00787F80
00787F80
0781FFE0
0781FFE0
0007E1F8
0007E1F8
00078078
00078078
0007E1F8
0007E1F8
0001FFE0
0001FFE0
00007F80
00007F80
00000000
00000000
00000000
00000000
00000000
00000000
00000000
00000000
00000000
00000000
ENDCHAR

STARTCHAR ampersand
ENCODING 38
SWIDTH 565 0
DWIDTH 30 0
BBX 30 50 0 -10
BITMAP
00000000
00000000
00000000
00000000
00000000
00000000
00000000
00000000
00000000
00000000
0007CC00
003FCC00
007FFC00
00FCFC00
00F83C00
00F83C00
00F83C00
00F80000
00F80000
00F80000
007C0000
007C0000
003E0000
003E0000
00FF0FC0
00FF0FC0
01FF8F00
03FF8F00
03E7CF00
03E3EF00
03E3EF00
03E1FF00
03E0FF00
03E0FE00
03E0FE00
03F1FC00
03FFFFC0
01FFFFC0
00FF1FC0
007E1FC0
00000000
00000000
00000000
00000000
00000000
00000000
00000000
00000000
00000000
00000000
ENDCHAR

STARTCHAR quoteright
ENCODING 39
SWIDTH 565 0
DWIDTH 30 0
BBX 30 50 0 -10
BITMAP
00000000
00000000
00000000
00000000
0001FC00
0001FC00
0003FC00
0003FC00
0003F000
0007F000
0007E000
000FC000
000FC000
000F8000
001F8000
001F0000
001E0000
001E0000
00000000
00000000
00000000
00000000
00000000
00000000
00000000
00000000
00000000
00000000
00000000
00000000
00000000
00000000
00000000
00000000
00000000
00000000
00000000
00000000
00000000
00000000
00000000
00000000
00000000
00000000
00000000
00000000
00000000
00000000
00000000
00000000
ENDCHAR

STARTCHAR parenleft
ENCODING 40
SWIDTH 565 0
DWIDTH 30 0
BBX 30 50 0 -10
BITMAP
00000000
00000000
00000000
00000000
00000000
00000000
00003000
00003000
0000F000
0000F000
0000C000
0000C000
0003C000
0003C000
0003C000
0003C000
000F0000
000F0000
000F0000
000F0000
003F0000
003F0000
003F0000
003F0000
003F0000
003F0000
003F0000
003F0000
003F0000
003F0000
003F0000
003F0000
003F0000
003F0000
000F0000
000F0000
000F0000
000F0000
0003C000
0003C000
0003C000
0003C000
0000C000
0000C000
0000F000
0000F000
00003000
00003000
00000000
00000000
ENDCHAR

STARTCHAR parenright
ENCODING 41
SWIDTH 565 0
DWIDTH 30 0
BBX 30 50 0 -10
BITMAP
00000000
00000000
00000000
00000000
00000000
00000000
00300000
00300000
003C0000
003C0000
000C0000
000C0000
000F0000
000F0000
000F0000
000F0000
0003C000
0003C000
0003C000
0003C000
0003F000
0003F000
0003F000
0003F000
0003F000
0003F000
0003F000
0003F000
0003F000
0003F000
0003F000
0003F000
0003F000
0003F000
0003C000
0003C000
0003C000
0003C000
000F0000
000F0000
000F0000
000F0000
000C0000
000C0000
003C0000
003C0000
00300000
00300000
00000000
00000000
ENDCHAR

STARTCHAR asterisk
ENCODING 42
SWIDTH 565 0
DWIDTH 30 0
BBX 30 50 0 -10
BITMAP
00000000
00000000
00000000
00000000
00000000
00000000
00000000
00000000
00000000
00000000
00000000
00000000
00000000
00000000
00000000
000FC000
000FC000
000FC000
000FC000
0F0FC3C0
0F0FC3C0
0FCFCFC0
0FCFCFC0
03FFFF00
03FFFF00
00FFFC00
00FFFC00
003FF000
003FF000
00FFFC00
00FFFC00
00FCFC00
00FCFC00
03F03F00
03F03F00
03F03F00
03F03F00
00000000
00000000
00000000
00000000
00000000
00000000
00000000
00000000
00000000
00000000
00000000
00000000
00000000
ENDCHAR

STARTCHAR plus
ENCODING 43
SWIDTH 565 0
DWIDTH 30 0
BBX 30 50 0 -10
BITMAP
00000000
00000000
00000000
00000000
00000000
00000000
00000000
00000000
00000000
00000000
00000000
00000000
00000000
00000000
000F0000
000F0000
000F0000
000F0000
000F0000
000F0000
000F0000
000F0000
000F0000
000F0000
3FFFFFC0
3FFFFFC0
3FFFFFC0
3FFFFFC0
000F0000
000F0000
000F0000
000F0000
000F0000
000F0000
000F0000
000F0000
000F0000
000F0000
00000000
00000000
00000000
00000000
00000000
00000000
00000000
00000000
00000000
00000000
00000000
00000000
ENDCHAR

STARTCHAR comma
ENCODING 44
SWIDTH 565 0
DWIDTH 30 0
BBX 30 50 0 -10
BITMAP
00000000
00000000
00000000
00000000
00000000
00000000
00000000
00000000
00000000
00000000
00000000
00000000
00000000
00000000
00000000
00000000
00000000
00000000
00000000
00000000
00000000
00000000
00000000
00000000
00000000
00000000
00000000
00000000
00000000
00000000
00000000
00000000
00000000
0003F000
0003F000
0003F000
0003F000
0003F000
0007E000
0007C000
000FC000
000FC000
003F0000
003F0000
003C0000
003C0000
00380000
00300000
00000000
00000000
ENDCHAR

STARTCHAR minus
ENCODING 45
SWIDTH 565 0
DWIDTH 30 0
BBX 30 50 0 -10
BITMAP
00000000
00000000
00000000
00000000
00000000
00000000
00000000
00000000
00000000
00000000
00000000
00000000
00000000
00000000
00000000
00000000
00000000
00000000
00000000
00000000
00000000
00000000
00000000
00000000
3FFFFFF0
3FFFFFF0
3FFFFFF0
3FFFFFF0
00000000
00000000
00000000
00000000
00000000
00000000
00000000
00000000
00000000
00000000
00000000
00000000
00000000
00000000
00000000
00000000
00000000
00000000
00000000
00000000
00000000
00000000
ENDCHAR

STARTCHAR period
ENCODING 46
SWIDTH 565 0
DWIDTH 30 0
BBX 30 50 0 -10
BITMAP
00000000
00000000
00000000
00000000
00000000
00000000
00000000
00000000
00000000
00000000
00000000
00000000
00000000
00000000
00000000
00000000
00000000
00000000
00000000
00000000
00000000
00000000
00000000
00000000
00000000
00000000
00000000
00000000
00000000
00000000
00000000
00000000
000FC000
000FC000
003FF000
003FF000
003FF000
003FF000
000FC000
000FC000
00000000
00000000
00000000
00000000
00000000
00000000
00000000
00000000
00000000
00000000
ENDCHAR

STARTCHAR slash
ENCODING 47
SWIDTH 565 0
DWIDTH 30 0
BBX 30 50 0 -10
BITMAP
00000000
00000000
00000000
00000000
000003E0
000003E0
000003E0
000003E0
00000F80
00000F80
00000F80
00000F80
00003E00
00003E00
00003E00
00003E00
0000F800
0000F800
0000F800
0000F800
0003E000
0003E000
0003E000
0003E000
000F8000
000F8000
000F8000
000F8000
003E0000
003E0000
003E0000
003E0000
00F80000
00F80000
00F80000
00F80000
03E00000
03E00000
03E00000
03E00000
0F800000
0F800000
0F800000
0F800000
00000000
00000000
00000000
00000000
00000000
00000000
ENDCHAR

STARTCHAR zero
ENCODING 48
SWIDTH 565 0
DWIDTH 30 0
BBX 30 50 0 -10
BITMAP
00000000
00000000
00000000
00000000
00000000
00000000
00000000
00000000
00000000
00000000
001FE000
001FE000
00F87C00
01F87E00
01E01E00
01E01E00
01E01E00
07E01F80
07E01F80
07E01F80
07E01F80
07E01F80
07E01F80
07E01F80
07E01F80
07E01F80
07E01F80
07E01F80
07E01F80
07E01F80
07E01F80
07E01F80
07E01F80
01E01E00
01E01E00
01E01E00
01F87E00
00F87C00
001FE000
001FE000
00000000
00000000
00000000
00000000
00000000
00000000
00000000
00000000
00000000
00000000
ENDCHAR

STARTCHAR one
ENCODING 49
SWIDTH 565 0
DWIDTH 30 0
BBX 30 50 0 -10
BITMAP
00000000
00000000
00000000
00000000
00000000
00000000
00000000
00000000
00000000
00000000
000FE000
001FE000
003FE000
007FE000
00F7E000
01E7E000
03C7E000
0387E000
0387E000
0007E000
0007E000
0007E000
0007E000
0007E000
0007E000
0007E000
0007E000
0007E000
0007E000
0007E000
0007E000
0007E000
0007E000
0007E000
0007E000
0007E000
0007E000
0007E000
03FFFF80
03FFFF80
00000000
00000000
00000000
00000000
00000000
00000000
00000000
00000000
00000000
00000000
ENDCHAR

STARTCHAR two
ENCODING 50
SWIDTH 565 0
DWIDTH 30 0
BBX 30 50 0 -10
BITMAP
00000000
00000000
00000000
00000000
00000000
00000000
00000000
00000000
00000000
00000000
00FFF000
00FFF000
03F0FC00
03F0FC00
0FC03F00
0FC03F00
0FC03F00
0FC03F00
00003F00
00003F00
00007F00
0000FF00
0000FC00
0001FC00
0003F000
0003F000
000FC000
000FC000
003F0000
003F0000
00FC0000
00FC0000
03F00000
03F00000
0FC03F00
0FC03F00
0FC03F00
0FC03F00
0FFFFF00
0FFFFF00
00000000
00000000
00000000
00000000
00000000
00000000
00000000
00000000
00000000
00000000
ENDCHAR

STARTCHAR three
ENCODING 51
SWIDTH 565 0
DWIDTH 30 0
BBX 30 50 0 -10
BITMAP
00000000
00000000
00000000
00000000
00000000
00000000
00000000
00000000
00000000
00000000
007FF800
00FFF800
07F07E00
07F07E00
07C01F80
07C01F80
00001F80
00001F80
00001F80
00001F80
00007E00
00007E00
001FF800
001FE000
001FE000
001FF800
00007E00
00007E00
00001F80
00001F80
00001F80
00001F80
00001F80
00001F80
07C01F80
07C01F80
07F07E00
07F07E00
00FFF800
007FF800
00000000
00000000
00000000
00000000
00000000
00000000
00000000
00000000
00000000
00000000
ENDCHAR

STARTCHAR four
ENCODING 52
SWIDTH 565 0
DWIDTH 30 0
BBX 30 50 0 -10
BITMAP
00000000
00000000
00000000
00000000
00000000
00000000
00000000
00000000
00000000
00000000
0001FC00
0003FC00
0007FC00
000FFC00
000FFC00
001FFC00
003EFC00
003CFC00
0078FC00
00F0FC00
00F0FC00
01E0FC00
03E0FC00
03C0FC00
0780FC00
0F80FC00
0F00FC00
0F00FC00
0FFFFFC0
0FFFFFC0
0FFFFFC0
0FFFFFC0
0000FC00
0000FC00
0000FC00
0000FC00
0000FC00
0000FC00
0000FC00
0000FC00
00000000
00000000
00000000
00000000
00000000
00000000
00000000
00000000
00000000
00000000
ENDCHAR

STARTCHAR five
ENCODING 53
SWIDTH 565 0
DWIDTH 30 0
BBX 30 50 0 -10
BITMAP
00000000
00000000
00000000
00000000
00000000
00000000
00000000
00000000
00000000
00000000
07FFFE00
07FFFE00
07FFFE00
07FFFE00
07E00000
07E00000
07E00000
07E00000
07E00000
07E00000
07E7F800
07FFF800
07FFFE00
07FFFE00
07E07F80
07E07F80
00001F80
00001F80
00001F80
00001F80
00001F80
00001F80
00001F80
00001F80
07C01F80
07C01F80
07E07E00
07E07E00
01FFF000
01FFE000
00000000
00000000
00000000
00000000
00000000
00000000
00000000
00000000
00000000
00000000
ENDCHAR

STARTCHAR six
ENCODING 54
SWIDTH 565 0
DWIDTH 30 0
BBX 30 50 0 -10
BITMAP
00000000
00000000
00000000
00000000
00000000
00000000
00000000
00000000
00000000
00000000
0000FE00
0003FE00
000FE000
001FC000
003F0000
007E0000
00F80000
01F80000
01F00000
01F00000
03E3F800
07E7F800
07E7FE00
07EFFE00
07F87F00
07F87F80
07E01F80
07E01F80
07E01F80
07E01F80
07E01F80
07E01F80
07E01F80
07E01F00
03F81E00
01F81E00
01FE7800
00FE7800
003FE000
001FE000
00000000
00000000
00000000
00000000
00000000
00000000
00000000
00000000
00000000
00000000
ENDCHAR

STARTCHAR seven
ENCODING 55
SWIDTH 565 0
DWIDTH 30 0
BBX 30 50 0 -10
BITMAP
00000000
00000000
00000000
00000000
00000000
00000000
00000000
00000000
00000000
00000000
07FFFF80
07FFFF80
07FFFF80
07FFFF80
07801F80
07801F80
07801E00
07801E00
00007E00
00007E00
00007800
00007800
00007800
00007800
0001E000
0001E000
0001E000
0001E000
0007E000
0007E000
0007E000
0007C000
0007C000
00078000
001F8000
001F8000
001F8000
001F8000
001F8000
001F8000
00000000
00000000
00000000
00000000
00000000
00000000
00000000
00000000
00000000
00000000
ENDCHAR

STARTCHAR eight
ENCODING 56
SWIDTH 565 0
DWIDTH 30 0
BBX 30 50 0 -10
BITMAP
00000000
00000000
00000000
00000000
00000000
00000000
00000000
00000000
00000000
00000000
001FE000
007FF800
00F87C00
01F87E00
01E01E00
07E01F80
07E01F80
07E01F80
07E01F80
07E01F80
01F87E00
01F87E00
00787800
007FF800
001FE000
001FE000
00F87C00
03F87F00
03E01F00
07E01F80
07E01F80
07E01F80
07E01F80
07E01F80
07E01F80
07E01F80
03F87F00
01F87E00
003FF000
001FE000
00000000
00000000
00000000
00000000
00000000
00000000
00000000
00000000
00000000
00000000
ENDCHAR

STARTCHAR nine
ENCODING 57
SWIDTH 565 0
DWIDTH 30 0
BBX 30 50 0 -10
BITMAP
00000000
00000000
00000000
00000000
00000000
00000000
00000000
00000000
00000000
00000000
001FE000
003FF800
01F87E00
01F87E00
07E01F00
07E01F00
07E01F80
07E01F80
07E01F80
07E01F80
07E01F80
07E01F80
07E01F80
07E01F80
01F87F80
01F87F80
007F9F80
003F9F80
00001F80
00001F80
00003F00
00007E00
00007E00
00007E00
0001F800
0001F800
001FE000
001FE000
01FE0000
01FE0000
00000000
00000000
00000000
00000000
00000000
00000000
00000000
00000000
00000000
00000000
ENDCHAR

STARTCHAR colon
ENCODING 58
SWIDTH 565 0
DWIDTH 30 0
BBX 30 50 0 -10
BITMAP
00000000
00000000
00000000
00000000
00000000
00000000
00000000
00000000
00000000
00000000
00000000
00000000
00000000
00000000
00000000
00000000
000FC000
000FC000
003FF000
003FF000
003FF000
003FF000
000FC000
000FC000
00000000
00000000
00000000
00000000
00000000
00000000
00000000
00000000
000FC000
000FC000
003FF000
003FF000
003FF000
003FF000
000FC000
000FC000
00000000
00000000
00000000
00000000
00000000
00000000
00000000
00000000
00000000
00000000
ENDCHAR

STARTCHAR semicolon
ENCODING 59
SWIDTH 565 0
DWIDTH 30 0
BBX 30 50 0 -10
BITMAP
00000000
00000000
00000000
00000000
00000000
00000000
00000000
00000000
00000000
00000000
00000000
00000000
00000000
00000000
00000000
00000000
0003F000
0003F000
000FFC00
000FFC00
000FFC00
000FFC00
0003F000
0003F000
00000000
00000000
00000000
00000000
00000000
00000000
00000000
00000000
00000000
0003F000
0003F000
0003F000
0003F000
0003F000
0007E000
0007C000
000FC000
000FC000
003F0000
003F0000
003C0000
003C0000
00380000
00300000
00000000
00000000
ENDCHAR

STARTCHAR less
ENCODING 60
SWIDTH 565 0
DWIDTH 30 0
BBX 30 50 0 -10
BITMAP
00000000
00000000
00000000
00000000
00000000
00000000
00000000
00000000
00000000
00000000
00000000
00000000
000000F0
000001F0
00000FF0
00001FF0
0000FFC0
0001FF80
000FFC00
000FF800
003FC000
007F8000
03FC0000
07FC0000
1FE00000
1FE00000
07FC0000
03FC0000
007F8000
003FC000
000FF800
000FFC00
0001FF80
0000FFC0
00001FF0
00000FF0
000001F0
000000F0
00000000
00000000
00000000
00000000
00000000
00000000
00000000
00000000
00000000
00000000
00000000
00000000
ENDCHAR

STARTCHAR equal
ENCODING 61
SWIDTH 565 0
DWIDTH 30 0
BBX 30 50 0 -10
BITMAP
00000000
00000000
00000000
00000000
00000000
00000000
00000000
00000000
00000000
00000000
00000000
00000000
00000000
00000000
00000000
00000000
00000000
00000000
00000000
00000000
0FFFFFC0
0FFFFFC0
0FFFFFC0
0FFFFFC0
00000000
00000000
00000000
00000000
00000000
00000000
0FFFFFC0
0FFFFFC0
0FFFFFC0
0FFFFFC0
00000000
00000000
00000000
00000000
00000000
00000000
00000000
00000000
00000000
00000000
00000000
00000000
00000000
00000000
00000000
00000000
ENDCHAR

STARTCHAR greater
ENCODING 62
SWIDTH 565 0
DWIDTH 30 0
BBX 30 50 0 -10
BITMAP
00000000
00000000
00000000
00000000
00000000
00000000
00000000
00000000
00000000
00000000
00000000
00000000
1E000000
1F000000
1FE00000
1FF00000
07FE0000
03FF0000
007FE000
003FE000
0007F800
0003FC00
00007F80
00007FC0
00000FF0
00000FF0
00007FC0
00007F80
0003FC00
0007F800
003FE000
007FE000
03FF0000
07FE0000
1FF00000
1FE00000
1F000000
1E000000
00000000
00000000
00000000
00000000
00000000
00000000
00000000
00000000
00000000
00000000
00000000
00000000
ENDCHAR

STARTCHAR question
ENCODING 63
SWIDTH 565 0
DWIDTH 30 0
BBX 30 50 0 -10
BITMAP
00000000
00000000
00000000
00000000
00000000
00000000
00000000
00000000
00000000
00000000
01FFFC00
01FFFE00
07F01F80
07E01FC0
07E00FC0
07E00FC0
00000FC0
00000FC0
00000FC0
00001FC0
00007F80
00007F00
0007F800
0007F800
001F8000
001F8000
001F8000
001F8000
00000000
00000000
00000000
00000000
001F8000
001F8000
007FE000
007FE000
007FE000
007FE000
001F8000
001F8000
00000000
00000000
00000000
00000000
00000000
00000000
00000000
00000000
00000000
00000000
ENDCHAR

STARTCHAR at
ENCODING 64
SWIDTH 565 0
DWIDTH 30 0
BBX 30 50 0 -10
BITMAP
00000000
00000000
00000000
00000000
00000000
00000000
003FFE00
003FFE00
00F81FC0
00F007C0
03C003C0
03C003F0
0F0000F0
0F0000F0
0F0000F0
0F0000F0
3F0000F0
3F0001F0
3F00FFF0
3F00FFF0
3F03E3F0
3F03C3F0
3F03C3F0
3F03C3F0
3F0FC3F0
3F0FC3F0
3F0FC3F0
3F0FC3F0
3F0FC3F0
3F0FC3F0
3F03C3F0
3F03E7F0
3F00FCFC
3F00FCFC
3F000000
3F000000
3F000000
3F000000
0FC00000
0FC00000
0FF000F0
0FF801F0
00FFFFC0
00FFFFC0
000FFC00
000FFC00
00000000
00000000
00000000
00000000
ENDCHAR

STARTCHAR A
ENCODING 65
SWIDTH 565 0
DWIDTH 30 0
BBX 30 50 0 -10
BITMAP
00000000
00000000
00000000
00000000
00000000
00000000
00000000
00000000
00000000
00000000
000FC000
000FC000
000FC000
000FC000
003FF000
003FF000
003CF000
003CF000
003CF000
00FCFC00
00F87C00
00F87C00
00F87C00
00F87C00
03F87F00
03F03F00
03F03F00
03F03F00
03FFFF00
07FFFF80
07FFFF80
07C00F80
07C00F80
07C00F80
0FC00FC0
0FC00FC0
0F8007C0
0F8007C0
3FE01FF0
3FE01FF0
00000000
00000000
00000000
00000000
00000000
00000000
00000000
00000000
00000000
00000000
ENDCHAR

STARTCHAR B
ENCODING 66
SWIDTH 565 0
DWIDTH 30 0
BBX 30 50 0 -10
BITMAP
00000000
00000000
00000000
00000000
00000000
00000000
00000000
00000000
00000000
00000000
1FFFF800
1FFFF800
07E07F00
07E07F00
07E01F00
07E01F80
07E01F80
07E01F80
07E01F80
07E01F80
07E01F80
07E01F80
07E03E00
07E07E00
07FFF800
07FFF800
07E07E00
07E03E00
07E01F80
07E01F80
07E01F80
07E01F80
07E01F80
07E01F80
07E01F80
07E01F80
07E07F00
07E07F00
1FFFF800
1FFFF800
00000000
00000000
00000000
00000000
00000000
00000000
00000000
00000000
00000000
00000000
ENDCHAR

STARTCHAR C
ENCODING 67
SWIDTH 565 0
DWIDTH 30 0
BBX 30 50 0 -10
BITMAP
00000000
00000000
00000000
00000000
00000000
00000000
00000000
00000000
00000000
00000000
007FF9E0
007FF9E0
07F81FE0
07F81FE0
07E007E0
07E007E0
1F8001E0
1F8001E0
1F8001E0
1F8001E0
1F800000
1F800000
1F800000
1F800000
1F800000
1F800000
1F800000
1F800000
1F800000
1F800000
1F800000
1F800000
1F8001E0
1F8001E0
07E001E0
07E001E0
07F807E0
07F80FE0
007FFE00
007FFC00
00000000
00000000
00000000
00000000
00000000
00000000
00000000
00000000
00000000
00000000
ENDCHAR

STARTCHAR D
ENCODING 68
SWIDTH 565 0
DWIDTH 30 0
BBX 30 50 0 -10
BITMAP
00000000
00000000
00000000
00000000
00000000
00000000
00000000
00000000
00000000
00000000
1FFFF800
1FFFF800
07E01F80
07E01F80
07E01F80
07E01F80
07E007E0
07E007E0
07E007E0
07E007E0
07E007E0
07E007E0
07E007E0
07E007E0
07E007E0
07E007E0
07E007E0
07E007E0
07E007E0
07E007E0
07E007E0
07E007E0
07E007E0
07E007E0
07E01F80
07E01F80
07E01F80
07E01F80
1FFFF800
1FFFF800
00000000
00000000
00000000
00000000
00000000
00000000
00000000
00000000
00000000
00000000
ENDCHAR

STARTCHAR E
ENCODING 69
SWIDTH 565 0
DWIDTH 30 0
BBX 30 50 0 -10
BITMAP
00000000
00000000
00000000
00000000
00000000
00000000
00000000
00000000
00000000
00000000
0FFFFFC0
0FFFFFC0
03F003C0
03F003C0
03F003C0
03F003C0
03F003C0
03F00000
03F00000
03F00000
03F03800
03F03800
03F03800
03F03800
03FFF800
03FFF800
03F03800
03F03800
03F03800
03F03800
03F00000
03F00000
03F003C0
03F003C0
03F003C0
03F003C0
03F003C0
03F003C0
0FFFFFC0
0FFFFFC0
00000000
00000000
00000000
00000000
00000000
00000000
00000000
00000000
00000000
00000000
ENDCHAR

STARTCHAR F
ENCODING 70
SWIDTH 565 0
DWIDTH 30 0
BBX 30 50 0 -10
BITMAP
00000000
00000000
00000000
00000000
00000000
00000000
00000000
00000000
00000000
00000000
0FFFFFC0
0FFFFFC0
03F003C0
03F003C0
03F003C0
03F003C0
03F003C0
03F003C0
03F00000
03F00000
03F03800
03F03800
03F03800
03F03800
03FFF800
03FFF800
03F03800
03F03800
03F03800
03F03800
03F00000
03F00000
03F00000
03F00000
03F00000
03F00000
03F00000
03F00000
0FFF0000
0FFF0000
00000000
00000000
00000000
00000000
00000000
00000000
00000000
00000000
00000000
00000000
ENDCHAR

STARTCHAR G
ENCODING 71
SWIDTH 565 0
DWIDTH 30 0
BBX 30 50 0 -10
BITMAP
00000000
00000000
00000000
00000000
00000000
00000000
00000000
00000000
00000000
00000000
007FF9C0
007FF9C0
07F81FC0
07F81FC0
07E007C0
07E007C0
1F8003C0
1F8003C0
1F8003C0
1F8003C0
1F800000
1F800000
1F800000
1F800000
1F800000
1F800000
1F800000
1F803FF0
1F803FF0
1F800FC0
1F800FC0
1F800FC0
1F800FC0
1F800FC0
07E00FC0
07E00FC0
07F81F80
07F83F80
007FFE00
007FF800
00000000
00000000
00000000
00000000
00000000
00000000
00000000
00000000
00000000
00000000
ENDCHAR

STARTCHAR H
ENCODING 72
SWIDTH 565 0
DWIDTH 30 0
BBX 30 50 0 -10
BITMAP
00000000
00000000
00000000
00000000
00000000
00000000
00000000
00000000
00000000
00000000
3FF03FF0
3FF03FF0
0FC00FC0
0FC00FC0
0FC00FC0
0FC00FC0
0FC00FC0
0FC00FC0
0FC00FC0
0FC00FC0
0FC00FC0
0FC00FC0
0FC00FC0
0FFFFFC0
0FFFFFC0
0FFFFFC0
0FC00FC0
0FC00FC0
0FC00FC0
0FC00FC0
0FC00FC0
0FC00FC0
0FC00FC0
0FC00FC0
0FC00FC0
0FC00FC0
0FC00FC0
0FC00FC0
3FF03FF0
3FF03FF0
00000000
00000000
00000000
00000000
00000000
00000000
00000000
00000000
00000000
00000000
ENDCHAR

STARTCHAR I
ENCODING 73
SWIDTH 565 0
DWIDTH 30 0
BBX 30 50 0 -10
BITMAP
00000000
00000000
00000000
00000000
00000000
00000000
00000000
00000000
00000000
00000000
03FFFF00
03FFFF00
000FC000
000FC000
000FC000
000FC000
000FC000
000FC000
000FC000
000FC000
000FC000
000FC000
000FC000
000FC000
000FC000
000FC000
000FC000
000FC000
000FC000
000FC000
000FC000
000FC000
000FC000
000FC000
000FC000
000FC000
000FC000
000FC000
03FFFF00
03FFFF00
00000000
00000000
00000000
00000000
00000000
00000000
00000000
00000000
00000000
00000000
ENDCHAR

STARTCHAR J
ENCODING 74
SWIDTH 565 0
DWIDTH 30 0
BBX 30 50 0 -10
BITMAP
00000000
00000000
00000000
00000000
00000000
00000000
00000000
00000000
00000000
00000000
000FFFF0
000FFFF0
00003F00
00003F00
00003F00
00003F00
00003F00
00003F00
00003F00
00003F00
00003F00
00003F00
00003F00
00003F00
00003F00
00003F00
00003F00
00003F00
0F003F00
0F003F00
0F003F00
0F003F00
0F003F00
0F003F00
0F003F00
0FC03F00
07C0FC00
07C0FC00
07FFF000
00FFF000
00000000
00000000
00000000
00000000
00000000
00000000
00000000
00000000
00000000
00000000
ENDCHAR

STARTCHAR K
ENCODING 75
SWIDTH 565 0
DWIDTH 30 0
BBX 30 50 0 -10
BITMAP
00000000
00000000
00000000
00000000
00000000
00000000
00000000
00000000
00000000
00000000
0FFC3FF0
0FFC3FF0
03F00F80
03F01F00
03F03E00
03F03C00
03F07800
03F0F000
03F0F000
03F1E000
03F3C000
03F3C000
03FF8000
03FF0000
03FFC000
03FFC000
03F3F000
03F3F000
03F3F000
03F3FC00
03F0FC00
03F0FC00
03F0FF00
03F03F00
03F03F00
03F03FC0
03F00FC0
03F00FC0
0FFC1FF8
0FFC1FF8
00000000
00000000
00000000
00000000
00000000
00000000
00000000
00000000
00000000
00000000
ENDCHAR

STARTCHAR L
ENCODING 76
SWIDTH 565 0
DWIDTH 30 0
BBX 30 50 0 -10
BITMAP
00000000
00000000
00000000
00000000
00000000
00000000
00000000
00000000
00000000
00000000
0FFC0000
0FFC0000
03F00000
03F00000
03F00000
03F00000
03F00000
03F00000
03F00000
03F00000
03F00000
03F00000
03F00000
03F00000
03F00000
03F00000
03F00000
03F00000
03F00000
03F00000
03F003C0
03F003C0
03F003C0
03F003C0
03F003C0
03F003C0
03F003C0
03F003C0
0FFFFFC0
0FFFFFC0
00000000
00000000
00000000
00000000
00000000
00000000
00000000
00000000
00000000
00000000
ENDCHAR

STARTCHAR M
ENCODING 77
SWIDTH 565 0
DWIDTH 30 0
BBX 30 50 0 -10
BITMAP
00000000
00000000
00000000
00000000
00000000
00000000
00000000
00000000
00000000
00000000
7F8007F8
7F8007F8
1F8007E0
1FE007E0
1FE01FE0
1FE01FE0
1FE01FE0
1FE01FE0
1FF87FE0
1FF87FE0
1FB877E0
1FB877E0
1FBCF7E0
1FBCF7E0
1F8CC7E0
1F8CC7E0
1F8FC7E0
1F8FC7E0
1F8FC7E0
1F8787E0
1F8307E0
1F8307E0
1F8307E0
1F8307E0
1F8007E0
1F8007E0
1F8007E0
1F8007E0
7FE01FF8
7FE01FF8
00000000
00000000
00000000
00000000
00000000
00000000
00000000
00000000
00000000
00000000
ENDCHAR

STARTCHAR N
ENCODING 78
SWIDTH 565 0
DWIDTH 30 0
BBX 30 50 0 -10
BITMAP
00000000
00000000
00000000
00000000
00000000
00000000
00000000
00000000
00000000
00000000
3FE03FF0
3FE03FF0
0FE00FC0
0FE00FC0
0FF80FC0
0FF80FC0
0FF80FC0
0FF80FC0
0FFE0FC0
0FCE0FC0
0FCE0FC0
0FCE0FC0
0FCF8FC0
0FC38FC0
0FC38FC0
0FC38FC0
0FC38FC0
0FC0EFC0
0FC0EFC0
0FC0EFC0
0FC0EFC0
0FC0FFC0
0FC03FC0
0FC03FC0
0FC03FC0
0FC03FC0
0FC03FC0
0FC01FC0
3FF01FC0
3FF01FC0
00000000
00000000
00000000
00000000
00000000
00000000
00000000
00000000
00000000
00000000
ENDCHAR

STARTCHAR O
ENCODING 79
SWIDTH 565 0
DWIDTH 30 0
BBX 30 50 0 -10
BITMAP
00000000
00000000
00000000
00000000
00000000
00000000
00000000
00000000
00000000
00000000
007FF800
007FF800
07E01F80
07E01F80
07E01F80
07E01F80
1F8007E0
1F8007E0
1F8007E0
1F8007E0
1F8007E0
1F8007E0
1F8007E0
1F8007E0
1F8007E0
1F8007E0
1F8007E0
1F8007E0
1F8007E0
1F8007E0
1F8007E0
1F8007E0
1F8007E0
1F8007E0
07E01F80
07E01F80
07E01F80
07E01F80
007FF800
007FF800
00000000
00000000
00000000
00000000
00000000
00000000
00000000
00000000
00000000
00000000
ENDCHAR

STARTCHAR P
ENCODING 80
SWIDTH 565 0
DWIDTH 30 0
BBX 30 50 0 -10
BITMAP
00000000
00000000
00000000
00000000
00000000
00000000
00000000
00000000
00000000
00000000
0FFFFC00
0FFFFC00
03F00FC0
03F00FC0
03F003F0
03F003F0
03F003F0
03F003F0
03F003F0
03F003F0
03F003F0
03F003F0
03F003F0
03F003F0
03F00FC0
03F00FC0
03FFFC00
03FFFC00
03F00000
03F00000
03F00000
03F00000
03F00000
03F00000
03F00000
03F00000
03F00000
03F00000
0FFC0000
0FFC0000
00000000
00000000
00000000
00000000
00000000
00000000
00000000
00000000
00000000
00000000
ENDCHAR

STARTCHAR Q
ENCODING 81
SWIDTH 565 0
DWIDTH 30 0
BBX 30 50 0 -10
BITMAP
00000000
00000000
00000000
00000000
00000000
00000000
00000000
00000000
00000000
00000000
007FF800
007FF800
07E01F80
07E01F80
07E01F80
07E01F80
1F8007E0
1F8007E0
1F8007E0
1F8007E0
1F8007E0
1F8007E0
1F8007E0
1F8007E0
1F8007E0
1F8007E0
1F8007E0
1F8007E0
1F8007E0
1F8007E0
1F8007E0
1F8007E0
1F8007E0
1F8007E0
07E01F80
07E01F80
07E01E00
07E01E00
007FF800
007FF800
001E0000
001E0000
0079F818
0079F818
01FFFE78
01FFFE78
01E07FE0
01E07FE0
00000000
00000000
ENDCHAR

STARTCHAR R
ENCODING 82
SWIDTH 565 0
DWIDTH 30 0
BBX 30 50 0 -10
BITMAP
00000000
00000000
00000000
00000000
00000000
00000000
00000000
00000000
00000000
00000000
1FFFF800
1FFFFE00
07E01F80
07E01F80
07E007E0
07E007E0
07E007E0
07E007E0
07E007E0
07E007E0
07E00780
07E00780
07E01E00
07E01E00
07FFF800
07FFF800
07E1FE00
07E1FE00
07E07E00
07E07E00
07E07F80
07E07F80
07E01F80
07E01F80
07E01FE0
07E01FE0
07E007E0
07E007E0
1FF807F8
1FF807F8
00000000
00000000
00000000
00000000
00000000
00000000
00000000
00000000
00000000
00000000
ENDCHAR

STARTCHAR S
ENCODING 83
SWIDTH 565 0
DWIDTH 30 0
BBX 30 50 0 -10
BITMAP
00000000
00000000
00000000
00000000
00000000
00000000
00000000
00000000
00000000
00000000
00FFCF00
00FFEF00
03F07F00
03F03F00
0FC03F00
0FC03F00
0FC00F00
0FC00F00
0FC00000
0FC00000
0FC00000
0FC00000
03F00000
03FFFC00
00FFFE00
00FFFF80
00003F80
00003FC0
00000FC0
00000FC0
0F000FC0
0F000FC0
0F000FC0
0F000FC0
0FC00FC0
0FC00FC0
0FF03F00
0FF03F00
0F3FFC00
0F3FFC00
00000000
00000000
00000000
00000000
00000000
00000000
00000000
00000000
00000000
00000000
ENDCHAR

STARTCHAR T
ENCODING 84
SWIDTH 565 0
DWIDTH 30 0
BBX 30 50 0 -10
BITMAP
00000000
00000000
00000000
00000000
00000000
00000000
00000000
00000000
00000000
00000000
3FFFFFF0
3FFFFFF0
3C0FC0F0
3C0FC0F0
3C0FC0F0
3C0FC0F0
3C0FC0F0
3C0FC0F0
3C0FC0F0
3C0FC0F0
000FC000
000FC000
000FC000
000FC000
000FC000
000FC000
000FC000
000FC000
000FC000
000FC000
000FC000
000FC000
000FC000
000FC000
000FC000
000FC000
000FC000
000FC000
007FF800
007FF800
00000000
00000000
00000000
00000000
00000000
00000000
00000000
00000000
00000000
00000000
ENDCHAR

STARTCHAR U
ENCODING 85
SWIDTH 565 0
DWIDTH 30 0
BBX 30 50 0 -10
BITMAP
00000000
00000000
00000000
00000000
00000000
00000000
00000000
00000000
00000000
00000000
3FF03FF0
3FF03FF0
0FC00FC0
0FC00FC0
0FC00FC0
0FC00FC0
0FC00FC0
0FC00FC0
0FC00FC0
0FC00FC0
0FC00FC0
0FC00FC0
0FC00FC0
0FC00FC0
0FC00FC0
0FC00FC0
0FC00FC0
0FC00FC0
0FC00FC0
0FC00FC0
0FC00FC0
0FC00FC0
0FC00FC0
0FC00FC0
03F03F00
03F03F00
03F03F00
03F03F00
003FF000
003FF000
00000000
00000000
00000000
00000000
00000000
00000000
00000000
00000000
00000000
00000000
ENDCHAR

STARTCHAR V
ENCODING 86
SWIDTH 565 0
DWIDTH 30 0
BBX 30 50 0 -10
BITMAP
00000000
00000000
00000000
00000000
00000000
00000000
00000000
00000000
00000000
00000000
FFC00FFC
FFC00FFC
3F0003F0
3F0003F0
3F0003F0
3F0003F0
0FC00FC0
0FC00FC0
0FC00FC0
0FC00FC0
0FC00FC0
03F03F00
03F03F00
03F03F00
03F03F00
03F03F00
00F87C00
00F87C00
00F87C00
00F87C00
00FCFC00
003CF000
003CF000
003FF000
003FF000
003FF000
000FC000
000FC000
000FC000
000FC000
00000000
00000000
00000000
00000000
00000000
00000000
00000000
00000000
00000000
00000000
ENDCHAR

STARTCHAR W
ENCODING 87
SWIDTH 565 0
DWIDTH 30 0
BBX 30 50 0 -10
BITMAP
00000000
00000000
00000000
00000000
00000000
00000000
00000000
00000000
00000000
00000000
7FC00FF8
7FC00FF8
1F8007E0
1F8007E0
1F8007E0
1F8007E0
1F8307E0
1F8307E0
1F8307E0
1F8787E0
1F8FC7E0
1F8FC7E0
1F8FC7E0
1F9CE7E0
1F9CE7E0
1F9CE7E0
079CE780
079CE780
079CE780
07B87780
07B87780
07B87780
07B87780
07F87F80
07F87F80
07E01F80
07E01F80
07E01F80
07E01F80
07E01F80
00000000
00000000
00000000
00000000
00000000
00000000
00000000
00000000
00000000
00000000
ENDCHAR

STARTCHAR X
ENCODING 88
SWIDTH 565 0
DWIDTH 30 0
BBX 30 50 0 -10
BITMAP
00000000
00000000
00000000
00000000
00000000
00000000
00000000
00000000
00000000
00000000
3FF81FF0
3FF81FF0
0FE007C0
0FE00FC0
03F00F00
03F01F00
01F83E00
00FC3E00
00FC7C00
007C7800
003EF000
003FF000
000FC000
0007C000
0007C000
000FE000
000FF000
001FF000
003CF800
003CF800
007CFC00
00F87C00
00F87E00
01F03F00
03F01F00
03E01F80
0FC00FC0
0FC00FC0
3FF03FF0
3FF03FF0
00000000
00000000
00000000
00000000
00000000
00000000
00000000
00000000
00000000
00000000
ENDCHAR

STARTCHAR Y
ENCODING 89
SWIDTH 565 0
DWIDTH 30 0
BBX 30 50 0 -10
BITMAP
00000000
00000000
00000000
00000000
00000000
00000000
00000000
00000000
00000000
00000000
7FF007F8
7FF007F8
1FC001E0
1FE001E0
07E003C0
07F00780
03F00780
01F80F00
01F81E00
00F81E00
007E7C00
007E7800
003FF800
001FF000
001FE000
000FE000
0007E000
0007E000
0007E000
0007E000
0007E000
0007E000
0007E000
0007E000
0007E000
0007E000
0007E000
0007E000
001FF800
001FF800
00000000
00000000
00000000
00000000
00000000
00000000
00000000
00000000
00000000
00000000
ENDCHAR

STARTCHAR Z
ENCODING 90
SWIDTH 565 0
DWIDTH 30 0
BBX 30 50 0 -10
BITMAP
00000000
00000000
00000000
00000000
00000000
00000000
00000000
00000000
00000000
00000000
1FFFFFE0
1FFFFFE0
1E000FE0
1E000FC0
1E001F80
1E001F80
1E003F00
1E007E00
00007E00
0000FE00
0001F800
0001F800
0007F000
0007E000
0007E000
001FC000
001F8000
001F8000
007E0000
007E0000
00FC0000
01F80000
01F801E0
03F001E0
07E001E0
0FE001E0
1FC001E0
1FC001E0
1FFFFFE0
1FFFFFE0
00000000
00000000
00000000
00000000
00000000
00000000
00000000
00000000
00000000
00000000
ENDCHAR

STARTCHAR bracketleft
ENCODING 91
SWIDTH 565 0
DWIDTH 30 0
BBX 30 50 0 -10
BITMAP
00000000
00000000
00000000
00000000
00000000
00000000
000FFF00
000FFF00
000FC000
000FC000
000FC000
000FC000
000FC000
000FC000
000FC000
000FC000
000FC000
000FC000
000FC000
000FC000
000FC000
000FC000
000FC000
000FC000
000FC000
000FC000
000FC000
000FC000
000FC000
000FC000
000FC000
000FC000
000FC000
000FC000
000FC000
000FC000
000FC000
000FC000
000FC000
000FC000
000FC000
000FC000
000FFF00
000FFF00
00000000
00000000
00000000
00000000
00000000
00000000
ENDCHAR

STARTCHAR backslash
ENCODING 92
SWIDTH 565 0
DWIDTH 30 0
BBX 30 50 0 -10
BITMAP
00000000
00000000
00000000
00000000
1F000000
1F000000
1F000000
1F000000
07C00000
07C00000
07C00000
07C00000
01F00000
01F00000
01F00000
01F00000
007C0000
007C0000
007C0000
007C0000
001F0000
001F0000
001F0000
001F0000
0007C000
0007C000
0007C000
0007C000
0001F000
0001F000
0001F000
0001F000
00007C00
00007C00
00007C00
00007C00
00001F00
00001F00
00001F00
00001F00
000007C0
000007C0
000007C0
000007C0
00000000
00000000
00000000
00000000
00000000
00000000
ENDCHAR

STARTCHAR bracketright
ENCODING 93
SWIDTH 565 0
DWIDTH 30 0
BBX 30 50 0 -10
BITMAP
00000000
00000000
00000000
00000000
00000000
00000000
00FFC000
00FFC000
000FC000
000FC000
000FC000
000FC000
000FC000
000FC000
000FC000
000FC000
000FC000
000FC000
000FC000
000FC000
000FC000
000FC000
000FC000
000FC000
000FC000
000FC000
000FC000
000FC000
000FC000
000FC000
000FC000
000FC000
000FC000
000FC000
000FC000
000FC000
000FC000
000FC000
000FC000
000FC000
000FC000
000FC000
00FFC000
00FFC000
00000000
00000000
00000000
00000000
00000000
00000000
ENDCHAR

STARTCHAR asciicircum
ENCODING 94
SWIDTH 565 0
DWIDTH 30 0
BBX 30 50 0 -10
BITMAP
00000000
00000000
00000000
00000000
00000000
00000000
00000000
00000000
00000000
00000000
00000000
00000000
00000000
00000000
00000000
00000000
00030000
00030000
000FC000
000FC000
003FF000
003FF000
00FCFC00
00FCFC00
03F03F00
03F03F00
0FC00FC0
0FC00FC0
00000000
00000000
00000000
00000000
00000000
00000000
00000000
00000000
00000000
00000000
00000000
00000000
00000000
00000000
00000000
00000000
00000000
00000000
00000000
00000000
00000000
00000000
ENDCHAR

STARTCHAR underscore
ENCODING 95
SWIDTH 565 0
DWIDTH 30 0
BBX 30 50 0 -10
BITMAP
00000000
00000000
00000000
00000000
00000000
00000000
00000000
00000000
00000000
00000000
00000000
00000000
00000000
00000000
00000000
00000000
00000000
00000000
00000000
00000000
00000000
00000000
00000000
00000000
00000000
00000000
00000000
00000000
00000000
00000000
00000000
00000000
00000000
00000000
00000000
00000000
3FFFFFF0
3FFFFFF0
3FFFFFF0
3FFFFFF0
00000000
00000000
00000000
00000000
00000000
00000000
00000000
00000000
00000000
00000000
ENDCHAR

STARTCHAR quoteleft
ENCODING 96
SWIDTH 565 0
DWIDTH 30 0
BBX 30 50 0 -10
BITMAP
00000000
00000000
00000000
00000000
003C0000
003C0000
00FF0000
00FF0000
00FFC000
00FFC000
001FF000
000FF000
0003FC00
0003FC00
00007C00
00003E00
00000F00
00000F00
00000000
00000000
00000000
00000000
00000000
00000000
00000000
00000000
00000000
00000000
00000000
00000000
00000000
00000000
00000000
00000000
00000000
00000000
00000000
00000000
00000000
00000000
00000000
00000000
00000000
00000000
00000000
00000000
00000000
00000000
00000000
00000000
ENDCHAR

STARTCHAR a
ENCODING 97
SWIDTH 565 0
DWIDTH 30 0
BBX 30 50 0 -10
BITMAP
00000000
00000000
00000000
00000000
00000000
00000000
00000000
00000000
00000000
00000000
00000000
00000000
00000000
00000000
00000000
00000000
00FFF000
00FFF000
03F0FC00
03F0FC00
00003F00
00003F00
00003F00
00003F00
00FFFF00
00FFFF00
03F03F00
03F03F00
0FC03F00
0FC03F00
0FC03F00
0FC03F00
0FC03F00
0FC03F00
0FC03F00
0FC03F00
03F1FF00
03F1FF00
00FF3FC0
00FF3FC0
00000000
00000000
00000000
00000000
00000000
00000000
00000000
00000000
00000000
00000000
ENDCHAR

STARTCHAR b
ENCODING 98
SWIDTH 565 0
DWIDTH 30 0
BBX 30 50 0 -10
BITMAP
00000000
00000000
00000000
00000000
00000000
00000000
00000000
00000000
1FE00000
1FE00000
07E00000
07E00000
07E00000
07E00000
07E00000
07E00000
07E7F800
07E7F800
07FE1F80
07FE1F80
07F80780
07F80780
07E007E0
07E007E0
07E007E0
07E007E0
07E007E0
07E007E0
07E007E0
07E007E0
07E007E0
07E007E0
07E007E0
07E007E0
07F80780
07F80780
07FE1F80
07FE1F80
1FE7F800
1FE7F800
00000000
00000000
00000000
00000000
00000000
00000000
00000000
00000000
00000000
00000000
ENDCHAR

STARTCHAR c
ENCODING 99
SWIDTH 565 0
DWIDTH 30 0
BBX 30 50 0 -10
BITMAP
00000000
00000000
00000000
00000000
00000000
00000000
00000000
00000000
00000000
00000000
00000000
00000000
00000000
00000000
00000000
00000000
003FF3C0
003FF3C0
03FC3FC0
03FC3FC0
03F00FC0
03F00FC0
0FC003C0
0FC003C0
0FC003C0
0FC003C0
0FC00000
0FC00000
0FC00000
0FC00000
0FC00000
0FC00000
0FC003C0
0FC003C0
03F003C0
03F003C0
03FC0F00
03FC0F00
003FFC00
003FFC00
00000000
00000000
00000000
00000000
00000000
00000000
00000000
00000000
00000000
00000000
ENDCHAR

STARTCHAR d
ENCODING 100
SWIDTH 565 0
DWIDTH 30 0
BBX 30 50 0 -10
BITMAP
00000000
00000000
00000000
00000000
00000000
00000000
00000000
00000000
00007F80
00007F80
00001F80
00001F80
00001F80
00001F80
00001F80
00001F80
007F9F80
007F9F80
07E1FF80
07E1FF80
07807F80
07807F80
1F801F80
1F801F80
1F801F80
1F801F80
1F801F80
1F801F80
1F801F80
1F801F80
1F801F80
1F801F80
1F801F80
1F801F80
07807F80
07807F80
07E1FF80
07E1FF80
007F9FE0
007F9FE0
00000000
00000000
00000000
00000000
00000000
00000000
00000000
00000000
00000000
00000000
ENDCHAR

STARTCHAR e
ENCODING 101
SWIDTH 565 0
DWIDTH 30 0
BBX 30 50 0 -10
BITMAP
00000000
00000000
00000000
00000000
00000000
00000000
00000000
00000000
00000000
00000000
00000000
00000000
00000000
00000000
00000000
00000000
003FFC00
003FFC00
03F03F00
03F03F00
03C00FC0
03C00FC0
0FC00FC0
0FC00FC0
0FC00FC0
0FC00FC0
0FFFFFC0
0FFFFFC0
0FC00000
0FC00000
0FC00000
0FC00000
0FC00000
0FE00000
03F003C0
03F003C0
03FC0FC0
03FC0FC0
003FFF00
003FFF00
00000000
00000000
00000000
00000000
00000000
00000000
00000000
00000000
00000000
00000000
ENDCHAR

STARTCHAR f
ENCODING 102
SWIDTH 565 0
DWIDTH 30 0
BBX 30 50 0 -10
BITMAP
00000000
00000000
00000000
00000000
00000000
00000000
00000000
00000000
0001FFE0
0001FFE0
0007E000
0007E000
001F8000
001F8000
001F8000
001F8000
07FFFF80
07FFFF80
001F8000
001F8000
001F8000
001F8000
001F8000
001F8000
001F8000
001F8000
001F8000
001F8000
001F8000
001F8000
001F8000
001F8000
001F8000
001F8000
001F8000
001F8000
001F8000
001F8000
07FFFF80
07FFFF80
00000000
00000000
00000000
00000000
00000000
00000000
00000000
00000000
00000000
00000000
ENDCHAR

STARTCHAR g
ENCODING 103
SWIDTH 565 0
DWIDTH 30 0
BBX 30 50 0 -10
BITMAP
00000000
00000000
00000000
00000000
00000000
00000000
00000000
00000000
00000000
00000000
00000000
00000000
00000000
00000000
00000000
00000000
007F9FE0
007F9FE0
07E1DF80
07E1FF80
07807F80
1F807F80
1F801F80
1F801F80
1F801F80
1F801F80
1F801F80
1F801F80
1F801F80
1F801F80
1F801F80
1F801F80
1F801F80
1F807F80
07807F80
07E1FF80
07E1FF80
007F9F80
007F9F80
00001F80
00001F80
00001F80
00001E00
00001E00
07FFFE00
07FFF800
07FFF800
07FFE000
00000000
00000000
ENDCHAR

STARTCHAR h
ENCODING 104
SWIDTH 565 0
DWIDTH 30 0
BBX 30 50 0 -10
BITMAP
00000000
00000000
00000000
00000000
00000000
00000000
00000000
00000000
1FE00000
1FE00000
07E00000
07E00000
07E00000
07E00000
07E00000
07E00000
07E7F800
07EFF800
07F87E00
07F87E00
07E01F80
07E01F80
07E01F80
07E01F80
07E01F80
07E01F80
07E01F80
07E01F80
07E01F80
07E01F80
07E01F80
07E01F80
07E01F80
07E01F80
07E01F80
07E01F80
07E01F80
07E01F80
1FE01FE0
1FE01FE0
00000000
00000000
00000000
00000000
00000000
00000000
00000000
00000000
00000000
00000000
ENDCHAR

STARTCHAR i
ENCODING 105
SWIDTH 565 0
DWIDTH 30 0
BBX 30 50 0 -10
BITMAP
00000000
00000000
00000000
00000000
00000000
00000000
0007E000
0007E000
0007E000
0007E000
0007E000
0007E000
00000000
00000000
00000000
00000000
01FFE000
01FFE000
0007E000
0007E000
0007E000
0007E000
0007E000
0007E000
0007E000
0007E000
0007E000
0007E000
0007E000
0007E000
0007E000
0007E000
0007E000
0007E000
0007E000
0007E000
0007E000
0007E000
07FFFFE0
07FFFFE0
00000000
00000000
00000000
00000000
00000000
00000000
00000000
00000000
00000000
00000000
ENDCHAR

STARTCHAR j
ENCODING 106
SWIDTH 565 0
DWIDTH 30 0
BBX 30 50 0 -10
BITMAP
00000000
00000000
00000000
00000000
00000000
00000000
0001F800
0001F800
0001F800
0001F800
0001F800
0001F800
00000000
00000000
00000000
00000000
01FFF800
01FFF800
0001F800
0001F800
0001F800
0001F800
0001F800
0001F800
0001F800
0001F800
0001F800
0001F800
0001F800
0001F800
0001F800
0001F800
0001F800
0001F800
0001F800
0001F800
0001F800
0001F800
0001F800
0001F800
0001F800
0001F800
0001E000
0001E000
07FFE000
07FFE000
07FE0000
07FE0000
00000000
00000000
ENDCHAR

STARTCHAR k
ENCODING 107
SWIDTH 565 0
DWIDTH 30 0
BBX 30 50 0 -10
BITMAP
00000000
00000000
00000000
00000000
00000000
00000000
00000000
00000000
1FE00000
1FE00000
07E00000
07E00000
07E00000
07E00000
07E00000
07E00000
07E07FE0
07E07FE0
07E01F80
07E01F80
07E03E00
07E07C00
07E0F800
07E1F000
07E3E000
07E7C000
07FF8000
07FF8000
07E7E000
07E7E000
07E1F800
07E1F800
07E07E00
07E07E00
07E01F80
07E01F80
07E007E0
07E007E0
1FF80FF8
1FF80FF8
00000000
00000000
00000000
00000000
00000000
00000000
00000000
00000000
00000000
00000000
ENDCHAR

STARTCHAR l
ENCODING 108
SWIDTH 565 0
DWIDTH 30 0
BBX 30 50 0 -10
BITMAP
00000000
00000000
00000000
00000000
00000000
00000000
00000000
00000000
03FFC000
03FFC000
000FC000
000FC000
000FC000
000FC000
000FC000
000FC000
000FC000
000FC000
000FC000
000FC000
000FC000
000FC000
000FC000
000FC000
000FC000
000FC000
000FC000
000FC000
000FC000
000FC000
000FC000
000FC000
000FC000
000FC000
000FC000
000FC000
000FC000
000FC000
0FFFFFC0
0FFFFFC0
00000000
00000000
00000000
00000000
00000000
00000000
00000000
00000000
00000000
00000000
ENDCHAR

STARTCHAR m
ENCODING 109
SWIDTH 565 0
DWIDTH 30 0
BBX 30 50 0 -10
BITMAP
00000000
00000000
00000000
00000000
00000000
00000000
00000000
00000000
00000000
00000000
00000000
00000000
00000000
00000000
00000000
00000000
7CFF3FC0
7CFF3FC0
3F0FC3F0
3F0FC3F0
3F0FC3F0
3F0FC3F0
3F0FC3F0
3F0FC3F0
3F0FC3F0
3F0FC3F0
3F0FC3F0
3F0FC3F0
3F0FC3F0
3F0FC3F0
3F0FC3F0
3F0FC3F0
3F0FC3F0
3F0FC3F0
3F0FC3F0
3F0FC3F0
3F0FC3F0
3F0FC3F0
7F8FC7F8
7F8FC7F8
00000000
00000000
00000000
00000000
00000000
00000000
00000000
00000000
00000000
00000000
ENDCHAR

STARTCHAR n
ENCODING 110
SWIDTH 565 0
DWIDTH 30 0
BBX 30 50 0 -10
BITMAP
00000000
00000000
00000000
00000000
00000000
00000000
00000000
00000000
00000000
00000000
00000000
00000000
00000000
00000000
00000000
00000000
1F87F800
1F8FF800
07F87E00
07F87E00
07E01F80
07E01F80
07E01F80
07E01F80
07E01F80
07E01F80
07E01F80
07E01F80
07E01F80
07E01F80
07E01F80
07E01F80
07E01F80
07E01F80
07E01F80
07E01F80
07E01F80
07E01F80
1FE01FE0
1FE01FE0
00000000
00000000
00000000
00000000
00000000
00000000
00000000
00000000
00000000
00000000
ENDCHAR

STARTCHAR o
ENCODING 111
SWIDTH 565 0
DWIDTH 30 0
BBX 30 50 0 -10
BITMAP
00000000
00000000
00000000
00000000
00000000
00000000
00000000
00000000
00000000
00000000
00000000
00000000
00000000
00000000
00000000
00000000
003FF000
003FF000
03F03F00
03F03F00
03F03F00
03F03F00
0FC00FC0
0FC00FC0
0FC00FC0
0FC00FC0
0FC00FC0
0FC00FC0
0FC00FC0
0FC00FC0
0FC00FC0
0FC00FC0
0FC00FC0
0FC00FC0
03F03F00
03F03F00
03F03F00
03F03F00
003FF000
003FF000
00000000
00000000
00000000
00000000
00000000
00000000
00000000
00000000
00000000
00000000
ENDCHAR

STARTCHAR p
ENCODING 112
SWIDTH 565 0
DWIDTH 30 0
BBX 30 50 0 -10
BITMAP
00000000
00000000
00000000
00000000
00000000
00000000
00000000
00000000
00000000
00000000
00000000
00000000
00000000
00000000
00000000
00000000
1FE7F800
1FE7F800
07FE1F80
07FE1F80
07F80F80
07F80780
07E007E0
07E007E0
07E007E0
07E007E0
07E007E0
07E007E0
07E007E0
07E007E0
07E007E0
07E007E0
07E007E0
07E007E0
07F80780
07F80780
07FE1F80
07FE1F80
07E7F800
07E7F800
07E00000
07E00000
07E00000
07E00000
07E00000
07E00000
1FF80000
1FF80000
00000000
00000000
ENDCHAR

STARTCHAR q
ENCODING 113
SWIDTH 565 0
DWIDTH 30 0
BBX 30 50 0 -10
BITMAP
00000000
00000000
00000000
00000000
00000000
00000000
00000000
00000000
00000000
00000000
00000000
00000000
00000000
00000000
00000000
00000000
007FE1E0
007FE1E0
07E1FF80
07E1FF80
07807F80
07807F80
1F801F80
1F801F80
1F801F80
1F801F80
1F801F80
1F801F80
1F801F80
1F801F80
1F801F80
1F801F80
1F801F80
1F801F80
07807F80
07807F80
07E1FF80
07E1FF80
007F9F80
007F9F80
00001F80
00001F80
00001F80
00001F80
00001F80
00001F80
00007FE0
00007FE0
00000000
00000000
ENDCHAR

STARTCHAR r
ENCODING 114
SWIDTH 565 0
DWIDTH 30 0
BBX 30 50 0 -10
BITMAP
00000000
00000000
00000000
00000000
00000000
00000000
00000000
00000000
00000000
00000000
00000000
00000000
00000000
00000000
00000000
00000000
0FFC3FC0
0FFC7FC0
00FFE3F0
00FFC3F0
00FF03F0
00FF03F0
00FC0000
00FC0000
00FC0000
00FC0000
00FC0000
00FC0000
00FC0000
00FC0000
00FC0000
00FC0000
00FC0000
00FC0000
00FC0000
00FC0000
00FC0000
00FC0000
0FFFF000
0FFFF000
00000000
00000000
00000000
00000000
00000000
00000000
00000000
00000000
00000000
00000000
ENDCHAR

STARTCHAR s
ENCODING 115
SWIDTH 565 0
DWIDTH 30 0
BBX 30 50 0 -10
BITMAP
00000000
00000000
00000000
00000000
00000000
00000000
00000000
00000000
00000000
00000000
00000000
00000000
00000000
00000000
00000000
00000000
00FFF3C0
00FFF3C0
03F03FC0
03F03FC0
0FC00FC0
0FC00FC0
0FC00FC0
0FC00FC0
03FC0000
03FC0000
00FFFC00
00FFFC00
0003FF00
0003FF00
00000FC0
00000FC0
0FC00FC0
0FC00FC0
0FC00FC0
0FC00FC0
0FF03F00
0FF03F00
0F3FFC00
0F3FFC00
00000000
00000000
00000000
00000000
00000000
00000000
00000000
00000000
00000000
00000000
ENDCHAR

STARTCHAR t
ENCODING 116
SWIDTH 565 0
DWIDTH 30 0
BBX 30 50 0 -10
BITMAP
00000000
00000000
00000000
00000000
00000000
00000000
00000000
00000000
00FC0000
00FC0000
00FC0000
00FC0000
00FC0000
00FC0000
00FC0000
00FC0000
1FFFFE00
1FFFFE00
00FC0000
00FC0000
00FC0000
00FC0000
00FC0000
00FC0000
00FC0000
00FC0000
00FC0000
00FC0000
00FC0000
00FC0000
00FC0000
00FC0000
00FC0000
00FC0000
00FC01C0
00FC01C0
007F07C0
007F07C0
007FFF00
000FFE00
00000000
00000000
00000000
00000000
00000000
00000000
00000000
00000000
00000000
00000000
ENDCHAR

STARTCHAR u
ENCODING 117
SWIDTH 565 0
DWIDTH 30 0
BBX 30 50 0 -10
BITMAP
00000000
00000000
00000000
00000000
00000000
00000000
00000000
00000000
00000000
00000000
00000000
00000000
00000000
00000000
00000000
00000000
3FC0FF00
3FC0FF00
0FC03F00
0FC03F00
0FC03F00
0FC03F00
0FC03F00
0FC03F00
0FC03F00
0FC03F00
0FC03F00
0FC03F00
0FC03F00
0FC03F00
0FC03F00
0FC03F00
0FC03F00
0FC03F00
0FC03F00
0FC03F00
0FF0FF00
0FF0FF00
03FF8FF0
03FF0FF0
00000000
00000000
00000000
00000000
00000000
00000000
00000000
00000000
00000000
00000000
ENDCHAR

STARTCHAR v
ENCODING 118
SWIDTH 565 0
DWIDTH 30 0
BBX 30 50 0 -10
BITMAP
00000000
00000000
00000000
00000000
00000000
00000000
00000000
00000000
00000000
00000000
00000000
00000000
00000000
00000000
00000000
00000000
7FF80FFC
7FF80FFC
0FC001F0
0FC001F0
0FE003C0
0FF003C0
03F003C0
03F003C0
03F00F00
03F00F00
00FC0F00
00FC0F00
00FC3C00
00FC3C00
003F3C00
003F3C00
003FFC00
003FF000
000FF000
000FF000
000FF000
000FC000
0003C000
0003C000
00000000
00000000
00000000
00000000
00000000
00000000
00000000
00000000
00000000
00000000
ENDCHAR

STARTCHAR w
ENCODING 119
SWIDTH 565 0
DWIDTH 30 0
BBX 30 50 0 -10
BITMAP
00000000
00000000
00000000
00000000
00000000
00000000
00000000
00000000
00000000
00000000
00000000
00000000
00000000
00000000
00000000
00000000
FF0003FC
FF0003FC
3E0001F0
3E0001F0
3E0301F0
3E0301F0
3E0781F0
3E0781F0
3E0FC1F0
3E0FC1F0
3F0FC3F0
3F0FC3F0
3F3CF3F0
3F3CF3F0
0F3CF3C0
0F3CF3C0
0FF03FC0
0FF03FC0
0FF03FC0
0FF03FC0
03C00F00
03C00F00
03C00F00
03C00F00
00000000
00000000
00000000
00000000
00000000
00000000
00000000
00000000
00000000
00000000
ENDCHAR

STARTCHAR x
ENCODING 120
SWIDTH 565 0
DWIDTH 30 0
BBX 30 50 0 -10
BITMAP
00000000
00000000
00000000
00000000
00000000
00000000
00000000
00000000
00000000
00000000
00000000
00000000
00000000
00000000
00000000
00000000
3FF03FE0
3FF03FE0
0FC00F80
0FC00F00
03F03E00
03F03C00
00FCF800
00FCF000
003FE000
003FC000
000FC000
000FC000
001FE000
003FF000
007FF000
00FDF000
00F8FC00
01F0FC00
03F03F00
07E03F00
0FC00FC0
0FC00FC0
3FF03FF0
3FF03FF0
00000000
00000000
00000000
00000000
00000000
00000000
00000000
00000000
00000000
00000000
ENDCHAR

STARTCHAR y
ENCODING 121
SWIDTH 565 0
DWIDTH 30 0
BBX 30 50 0 -10
BITMAP
00000000
00000000
00000000
00000000
00000000
00000000
00000000
00000000
00000000
00000000
00000000
00000000
00000000
00000000
00000000
00000000
3FF03FF8
3FF03FF8
0FC007E0
0FC007C0
0FC00F80
0FC00F80
03F00F80
03F01F00
03F01F00
03F01F00
00FC7E00
00FC7C00
00FC7C00
00FCF800
003CF800
003CF800
003FF000
003FE000
000FE000
000FC000
000FC000
000FC000
000FC000
000FC000
003F0000
003F0000
003F0000
003F0000
003F0000
003F0000
03FFC000
03FFC000
00000000
00000000
ENDCHAR

STARTCHAR z
ENCODING 122
SWIDTH 565 0
DWIDTH 30 0
BBX 30 50 0 -10
BITMAP
00000000
00000000
00000000
00000000
00000000
00000000
00000000
00000000
00000000
00000000
00000000
00000000
00000000
00000000
00000000
00000000
0FFFFF00
0FFFFF00
0F003F00
0F003F00
0C007E00
0C00FC00
0000FC00
0001F800
0003F000
0003F000
000FC000
000FC000
001F8000
003F0000
003F0000
007E0000
00FC0000
01F80000
03F000C0
03F000C0
0FE003C0
0FC003C0
0FFFFFC0
0FFFFFC0
00000000
00000000
00000000
00000000
00000000
00000000
00000000
00000000
00000000
00000000
ENDCHAR

STARTCHAR braceleft
ENCODING 123
SWIDTH 565 0
DWIDTH 30 0
BBX 30 50 0 -10
BITMAP
00000000
00000000
00000000
00000000
0003FC00
0003FC00
000FC000
000FC000
000FC000
000FC000
000FC000
000FC000
000FC000
000FC000
000FC000
000FC000
000FC000
000FC000
000FC000
000FC000
003F0000
003F0000
003C0000
003C0000
03F00000
03F00000
003C0000
003C0000
000F0000
000F0000
000FC000
000FC000
000FC000
000FC000
000FC000
000FC000
000FC000
000FC000
000FC000
000FC000
000FC000
000FC000
000FC000
000FC000
0003FC00
0003FC00
00000000
00000000
00000000
00000000
ENDCHAR

STARTCHAR bar
ENCODING 124
SWIDTH 565 0
DWIDTH 30 0
BBX 30 50 0 -10
BITMAP
00000000
000FC000
000FC000
000FC000
000FC000
000FC000
000FC000
000FC000
000FC000
000FC000
000FC000
000FC000
000FC000
000FC000
000FC000
000FC000
000FC000
000FC000
000FC000
000FC000
000FC000
000FC000
000FC000
000FC000
000FC000
000FC000
000FC000
000FC000
000FC000
000FC000
000FC000
000FC000
000FC000
000FC000
000FC000
000FC000
000FC000
000FC000
000FC000
000FC000
000FC000
000FC000
000FC000
000FC000
000FC000
000FC000
000FC000
00000000
00000000
00000000
ENDCHAR

STARTCHAR braceright
ENCODING 125
SWIDTH 565 0
DWIDTH 30 0
BBX 30 50 0 -10
BITMAP
00000000
00000000
00000000
00000000
00FF0000
00FF0000
000FC000
000FC000
000FC000
000FC000
000FC000
000FC000
000FC000
000FC000
000FC000
000FC000
000FC000
000FC000
000FC000
000FC000
0003F000
0003F000
0000F000
0000F000
00003F00
00003F00
0000F000
0000F000
0003C000
0003C000
000FC000
000FC000
000FC000
000FC000
000FC000
000FC000
000FC000
000FC000
000FC000
000FC000
000FC000
000FC000
000FC000
000FC000
00FF0000
00FF0000
00000000
00000000
00000000
00000000
ENDCHAR

STARTCHAR asciitilde
ENCODING 126
SWIDTH 565 0
DWIDTH 30 0
BBX 30 50 0 -10
BITMAP
00000000
00000000
00000000
00000000
00000000
00000000
00000000
00000000
00000000
00000000
00000000
00000000
00000000
00000000
00000000
00000000
00000000
00000000
00000000
00000000
00FC0700
00FC0700
03FFC700
03FFC700
038FFF00
038FFF00
0380FC00
0380FC00
00000000
00000000
00000000
00000000
00000000
00000000
00000000
00000000
00000000
00000000
00000000
00000000
00000000
00000000
00000000
00000000
00000000
00000000
00000000
00000000
00000000
00000000
ENDCHAR

STARTCHAR OE
ENCODING 128
SWIDTH 565 0
DWIDTH 30 0
BBX 30 50 0 -10
BITMAP
00000000
00000000
00000000
00000000
00000000
00000000
00000000
00000000
00000000
00000000
0FF9FFF8
1FFFFFF8
3FFFE078
7E0FE078
7C07E078
7C07E078
7C07E000
7C07E000
7C07E000
7C07E000
7C07E000
7C07E0E0
7C07E0E0
7C07E0E0
7C07FFE0
7C07FFE0
7C07E0E0
7C07E0E0
7C07E0E0
7C07E000
7C07E000
7C07E000
7C07E000
7C07E000
7C07E078
7C07E078
7E1FE078
3FFFE078
1FF9FFF8
0FF1FFF8
00000000
00000000
00000000
00000000
00000000
00000000
00000000
00000000
00000000
00000000
ENDCHAR

STARTCHAR oe
ENCODING 129
SWIDTH 565 0
DWIDTH 30 0
BBX 30 50 0 -10
BITMAP
00000000
00000000
00000000
00000000
00000000
00000000
00000000
00000000
00000000
00000000
00000000
00000000
00000000
00000000
00000000
00000000
0FF83FE0
1FFC7FF0
3FFFF9F8
7C0FF0F8
7C07E078
7C07E078
7C07E078
7C07E078
7C07E078
7C07E078
7C07FFF8
7C07FFF8
7C07E000
7C07E000
7C07E000
7C07E000
7C07E000
7C07E000
7C07E078
7C07E078
7E1FE078
3FFFF0F0
1FF9FFF0
0FF0FFE0
00000000
00000000
00000000
00000000
00000000
00000000
00000000
00000000
00000000
00000000
ENDCHAR

STARTCHAR Ydieresis
ENCODING 130
SWIDTH 565 0
DWIDTH 30 0
BBX 30 50 0 -10
BITMAP
00000000
00000000
00F00F00
01F81F80
01F81F80
01F81F80
01F81F80
00F00F00
00000000
00000000
7FF007F8
7FF007F8
1FC001E0
1FE001E0
07E003C0
07F00780
03F00780
01F80F00
01F81E00
00F81E00
007E7C00
007E7800
003FF800
001FF000
001FE000
000FE000
0007E000
0007E000
0007E000
0007E000
0007E000
0007E000
0007E000
0007E000
0007E000
0007E000
0007E000
0007E000
001FF800
001FF800
00000000
00000000
00000000
00000000
00000000
00000000
00000000
00000000
00000000
00000000
ENDCHAR

STARTCHAR Error
ENCODING 159
SWIDTH 565 0
DWIDTH 30 0
BBX 30 50 0 -10
BITMAP
03FFFF00
1FFFFFC0
3FFFFFF8
7FFFFFF8
7FFFFFFC
FFFFFFFC
FFFFFFFC
FFF00FFC
FFE007FC
FFC003FC
FFC003FC
FFC003FC
FFC003FC
FFE003FC
FFF003FC
7FFC0000
7FFC0000
3FFF0000
3FFF0000
0FFFC000
0FFFC000
03FFC000
03FFF000
00FFFC00
007FFC00
003FFC00
003FFC00
003FFC00
003FFC00
003FFC00
003FFC00
00000000
00000000
00000000
00000000
00000000
00000000
00000000
00000000
003FFC00
003FFC00
003FFC00
003FFC00
003FFC00
003FFC00
003FFC00
003FFC00
003FFC00
003FFC00
00000000
ENDCHAR

STARTCHAR space
ENCODING 160
SWIDTH 565 0
DWIDTH 30 0
BBX 30 50 0 -10
BITMAP
00000000
00000000
00000000
00000000
00000000
00000000
00000000
00000000
00000000
00000000
00000000
00000000
00000000
00000000
00000000
00000000
00000000
00000000
00000000
00000000
00000000
00000000
00000000
00000000
00000000
00000000
00000000
00000000
00000000
00000000
00000000
00000000
00000000
00000000
00000000
00000000
00000000
00000000
00000000
00000000
00000000
00000000
00000000
00000000
00000000
00000000
00000000
00000000
00000000
00000000
ENDCHAR

STARTCHAR exclamdown
ENCODING 161
SWIDTH 565 0
DWIDTH 30 0
BBX 30 50 0 -10
BITMAP
00000000
00000000
00000000
00000000
00000000
00000000
00000000
00000000
00000000
00000000
00000000
00000000
00000000
00000000
00000000
00000000
000FC000
000FC000
003FF000
003FF000
003FF000
003FF000
000FC000
000FC000
00000000
00000000
000FC000
000FC000
000FC000
000FC000
000FC000
000FC000
000FC000
000FC000
000FC000
000FC000
000FC000
000FC000
000FC000
000FC000
000FC000
000FC000
000FC000
000FC000
000FC000
000FC000
00000000
00000000
00000000
00000000
ENDCHAR

STARTCHAR cent
ENCODING 162
SWIDTH 565 0
DWIDTH 30 0
BBX 30 50 0 -10
BITMAP
00000000
00000000
00000000
00000000
00000000
00000000
00000000
00000000
00078000
00078000
00078000
00078000
00078000
00078000
00078000
00078000
003FF3C0
003FF3C0
03F03FC0
03F03FC0
0FC00FC0
0FC00FC0
0FC003C0
0FC003C0
0FC00000
0FC00000
0FC00000
0FC00000
0FC00000
0FC00000
0FC00000
0FC00000
03F007C0
03F007C0
00FFFF00
00FFFF00
003FF000
003FF000
00078000
00078000
00078000
00078000
00078000
00078000
00078000
00078000
00000000
00000000
00000000
00000000
ENDCHAR

STARTCHAR sterling
ENCODING 163
SWIDTH 565 0
DWIDTH 30 0
BBX 30 50 0 -10
BITMAP
00000000
00000000
00000000
00000000
00000000
00000000
00000000
00000000
00000000
00000000
001FFF80
003FFF80
00FFFF80
00FC1F80
03F00780
03F00780
03F00780
03F00780
03F00000
03F80000
00FC0000
00FC0000
0FFFFE00
0FFFFE00
0FFFFE00
0FFFFE00
003F0000
003F0000
003F0000
003F0000
003F0000
003F0000
00FE0000
00FE0000
0FFF0000
0FFF0000
0FFFFFC0
0FFFFFC0
0F03FFC0
0F03FFC0
00000000
00000000
00000000
00000000
00000000
00000000
00000000
00000000
00000000
00000000
ENDCHAR

STARTCHAR currency
ENCODING 164
SWIDTH 565 0
DWIDTH 30 0
BBX 30 50 0 -10
BITMAP
00000000
00000000
00000000
00000000
00000000
00000000
00000000
00000000
00000000
00000000
00000000
00000000
00000000
00000000
3C0000F0
3E0001F0
3F0003F0
3F0003F0
0FBFF7C0
0FFFFFC0
03F03F00
01F03E00
03C00F00
03C00F00
03C00F00
03C00F00
03C00F00
03C00F00
03C00F00
03C00F00
01F03E00
03F03F00
0FFFFFC0
0FBFF7C0
3F0003F0
3F0003F0
3E0001F0
3C0000F0
00000000
00000000
00000000
00000000
00000000
00000000
00000000
00000000
00000000
00000000
00000000
00000000
ENDCHAR

STARTCHAR yen
ENCODING 165
SWIDTH 565 0
DWIDTH 30 0
BBX 30 50 0 -10
BITMAP
00000000
00000000
00000000
00000000
00000000
00000000
00000000
00000000
00000000
00000000
7FF007F8
7FF007F8
1FC001E0
1FE001E0
07E003C0
07F00780
03F00780
01F80F00
01F81E00
00FC1E00
007E7C00
07FE7FC0
07FFFFC0
07FFFFC0
07FFFFC0
0007E000
0007E000
0007E000
07FFFFC0
07FFFFC0
07FFFFC0
07FFFFC0
0007E000
0007E000
0007E000
0007E000
0007E000
0007E000
001FF800
001FF800
00000000
00000000
00000000
00000000
00000000
00000000
00000000
00000000
00000000
00000000
ENDCHAR

STARTCHAR brokenbar
ENCODING 166
SWIDTH 565 0
DWIDTH 30 0
BBX 30 50 0 -10
BITMAP
00000000
00000000
00000000
0007E000
0007E000
0007E000
0007E000
0007E000
0007E000
0007E000
0007E000
0007E000
0007E000
0007E000
0007E000
0007E000
0007E000
0007E000
0007E000
0007E000
00000000
00000000
00000000
00000000
00000000
00000000
0007E000
0007E000
0007E000
0007E000
0007E000
0007E000
0007E000
0007E000
0007E000
0007E000
0007E000
0007E000
0007E000
0007E000
0007E000
0007E000
0007E000
00000000
00000000
00000000
00000000
00000000
00000000
00000000
ENDCHAR

STARTCHAR section
ENCODING 167
SWIDTH 565 0
DWIDTH 30 0
BBX 30 50 0 -10
BITMAP
00000000
00000000
00000000
00000000
00000000
00000000
00000000
00000000
00000000
000FFF00
001FFF00
00FC0FC0
00FC0FC0
00F003C0
00F003C0
03F803C0
03FC03C0
0FFE0000
0FBF0000
0F9F8000
0F0FC000
0F07E000
0F03F000
0F81F800
0FC0FC00
07E07E00
03F03F00
01F81F00
00FC0F80
007E0FC0
003F07C0
001F87C0
000FC3C0
0007E3C0
0003F3C0
0001FF00
0000FF00
0F00FC00
0F00FC00
0F007C00
0F007C00
0FC0FC00
0FC0FC00
03FFF000
03FFF000
00000000
00000000
00000000
00000000
00000000
ENDCHAR

STARTCHAR dieresis
ENCODING 168
SWIDTH 565 0
DWIDTH 30 0
BBX 30 50 0 -10
BITMAP
00000000
00000000
00000000
00000000
03F03F00
03F03F00
03F03F00
03F03F00
03F03F00
03F03F00
00000000
00000000
00000000
00000000
00000000
00000000
00000000
00000000
00000000
00000000
00000000
00000000
00000000
00000000
00000000
00000000
00000000
00000000
00000000
00000000
00000000
00000000
00000000
00000000
00000000
00000000
00000000
00000000
00000000
00000000
00000000
00000000
00000000
00000000
00000000
00000000
00000000
00000000
00000000
00000000
ENDCHAR

STARTCHAR copyright
ENCODING 169
SWIDTH 565 0
DWIDTH 30 0
BBX 30 50 0 -10
BITMAP
00000000
00000000
00000000
00000000
00000000
00000000
00000000
00000000
00000000
00000000
00FFFC00
00FFFC00
07FFFF80
0FC00FC0
0F0003C0
0F0003C0
3E0FC1F0
3E0FC1F0
7E3FF1F8
7E3C71F8
7E3871F8
7E3871F8
7E3801F8
7E3801F8
7E3801F8
7E3801F8
7E3801F8
7E3801F8
7E3871F8
7E3871F8
7E3CF1F8
7E3FF1F8
3E0FC1F0
3E0FC1F0
0F0003C0
0F0003C0
0FC00FC0
07FFFF80
01FFFE00
01FFFE00
00000000
00000000
00000000
00000000
00000000
00000000
00000000
00000000
00000000
00000000
ENDCHAR

STARTCHAR ordfeminine
ENCODING 170
SWIDTH 565 0
DWIDTH 30 0
BBX 30 50 0 -10
BITMAP
00000000
00000000
00000000
00000000
000FFC00
003FFC00
00FFFF00
00F83F00
00F01F00
00F01F00
00001F00
00001F00
000FFF00
007FFF00
00FFFF00
01F81F00
01F01F00
01F01F00
01F01F00
01F03F00
01FC7F00
00FFFFC0
00FFFFC0
003FE7C0
00000000
00000000
03FFFFC0
03FFFFC0
03FFFFC0
03FFFFC0
00000000
00000000
00000000
00000000
00000000
00000000
00000000
00000000
00000000
00000000
00000000
00000000
00000000
00000000
00000000
00000000
00000000
00000000
00000000
00000000
ENDCHAR

STARTCHAR guillemotleft
ENCODING 171
SWIDTH 565 0
DWIDTH 30 0
BBX 30 50 0 -10
BITMAP
00000000
00000000
00000000
00000000
00000000
00000000
00000000
00000000
00000000
00000000
00000000
00000000
00000000
00000000
00000000
00000000
00000000
00000000
00000000
00000000
00060180
00060180
001E0780
001E0780
007E1F80
007E1F80
01F87E00
01F07C00
03E0F800
03E0F800
03E0F800
03F0FC00
01F07C00
01F87E00
007E1F80
007E1F80
001E0780
001E0780
00060180
00060180
00000000
00000000
00000000
00000000
00000000
00000000
00000000
00000000
00000000
00000000
ENDCHAR

STARTCHAR logicalnot
ENCODING 172
SWIDTH 565 0
DWIDTH 30 0
BBX 30 50 0 -10
BITMAP
00000000
00000000
00000000
00000000
00000000
00000000
00000000
00000000
00000000
00000000
00000000
00000000
00000000
00000000
00000000
00000000
00000000
00000000
00000000
00000000
07FFFF00
07FFFF00
07FFFF00
07FFFF00
00000F00
00000F00
00000F00
00000F00
00000F00
00000F00
00000F00
00000F00
00000000
00000000
00000000
00000000
00000000
00000000
00000000
00000000
00000000
00000000
00000000
00000000
00000000
00000000
00000000
00000000
00000000
00000000
ENDCHAR

STARTCHAR hyphen
ENCODING 173
SWIDTH 565 0
DWIDTH 30 0
BBX 30 50 0 -10
BITMAP
00000000
00000000
00000000
00000000
00000000
00000000
00000000
00000000
00000000
00000000
00000000
00000000
00000000
00000000
00000000
00000000
00000000
00000000
00000000
00000000
00000000
00000000
00000000
00000000
3FFFFFF0
3FFFFFF0
3FFFFFF0
3FFFFFF0
00000000
00000000
00000000
00000000
00000000
00000000
00000000
00000000
00000000
00000000
00000000
00000000
00000000
00000000
00000000
00000000
00000000
00000000
00000000
00000000
00000000
00000000
ENDCHAR

STARTCHAR registered
ENCODING 174
SWIDTH 565 0
DWIDTH 30 0
BBX 30 50 0 -10
BITMAP
00000000
00000000
00000000
00000000
00000000
00000000
00000000
00000000
00000000
00000000
00FFFC00
00FFFC00
0FFFFFC0
0FC00FC0
3F0003F0
3F0003F0
3C3FC0F0
3C3FC0F0
7C38F0F8
7C3870F8
7C3870F8
7C3870F8
7C3870F8
7C3870F8
7C3FC0F8
7C3FC0F8
7C38F0F8
7C3870F8
7C3870F8
7C3870F8
7C3870F8
7C3870F8
3C3870F0
3C3870F0
3F0003F0
3F0003F0
0FC00FC0
0FFFFFC0
00FFFC00
00FFFC00
00000000
00000000
00000000
00000000
00000000
00000000
00000000
00000000
00000000
00000000
ENDCHAR

STARTCHAR macron
ENCODING 175
SWIDTH 565 0
DWIDTH 30 0
BBX 30 50 0 -10
BITMAP
00000000
00000000
00000000
00000000
00000000
00000000
03FFFF00
03FFFF00
03FFFF00
03FFFF00
00000000
00000000
00000000
00000000
00000000
00000000
00000000
00000000
00000000
00000000
00000000
00000000
00000000
00000000
00000000
00000000
00000000
00000000
00000000
00000000
00000000
00000000
00000000
00000000
00000000
00000000
00000000
00000000
00000000
00000000
00000000
00000000
00000000
00000000
00000000
00000000
00000000
00000000
00000000
00000000
ENDCHAR

STARTCHAR degree
ENCODING 176
SWIDTH 565 0
DWIDTH 30 0
BBX 30 50 0 -10
BITMAP
00000000
00000000
00000000
00000000
001FE000
003FF000
00FCFC00
00F03C00
01E01E00
03C00F00
03C00F00
03C00F00
03C00F00
03C00F00
03C00F00
01E01E00
00F03C00
00FCFC00
003FF000
001FE000
00000000
00000000
00000000
00000000
00000000
00000000
00000000
00000000
00000000
00000000
00000000
00000000
00000000
00000000
00000000
00000000
00000000
00000000
00000000
00000000
00000000
00000000
00000000
00000000
00000000
00000000
00000000
00000000
00000000
00000000
ENDCHAR

STARTCHAR plusminus
ENCODING 177
SWIDTH 565 0
DWIDTH 30 0
BBX 30 50 0 -10
BITMAP
00000000
00000000
00000000
00000000
00000000
00000000
00000000
00000000
00000000
00000000
00000000
00000000
000F0000
000F0000
000F0000
000F0000
000F0000
000F0000
000F0000
000F0000
0FFFFF00
0FFFFF00
0FFFFF00
0FFFFF00
000F0000
000F0000
000F0000
000F0000
000F0000
000F0000
000F0000
000F0000
00000000
00000000
00000000
00000000
0FFFFFC0
0FFFFFC0
0FFFFFC0
0FFFFFC0
00000000
00000000
00000000
00000000
00000000
00000000
00000000
00000000
00000000
00000000
ENDCHAR

STARTCHAR twosuperior
ENCODING 178
SWIDTH 565 0
DWIDTH 30 0
BBX 30 50 0 -10
BITMAP
00000000
00000000
00000000
00000000
00FFF000
00FFF000
03F0FC00
03F0FC00
03F0FC00
03F0FC00
0000FC00
0000FC00
0003F000
0003F000
000FC000
000FC000
003F0000
003F0000
00FC0C00
00FC0C00
03FFFC00
03FFFC00
03FFFC00
03FFFC00
00000000
00000000
00000000
00000000
00000000
00000000
00000000
00000000
00000000
00000000
00000000
00000000
00000000
00000000
00000000
00000000
00000000
00000000
00000000
00000000
00000000
00000000
00000000
00000000
00000000
00000000
ENDCHAR

STARTCHAR threesuperior
ENCODING 179
SWIDTH 565 0
DWIDTH 30 0
BBX 30 50 0 -10
BITMAP
00000000
00000000
00000000
00000000
007FE000
00FFF000
03F0FC00
03F07C00
03C07C00
03C07C00
00007C00
0000FC00
000FF000
000FF000
000FFC00
0000FE00
00007E00
00007E00
03C07E00
03C07E00
03F0FC00
03F1FC00
00FFF000
007FE000
00000000
00000000
00000000
00000000
00000000
00000000
00000000
00000000
00000000
00000000
00000000
00000000
00000000
00000000
00000000
00000000
00000000
00000000
00000000
00000000
00000000
00000000
00000000
00000000
00000000
00000000
ENDCHAR

STARTCHAR acute
ENCODING 180
SWIDTH 565 0
DWIDTH 30 0
BBX 30 50 0 -10
BITMAP
00000000
00000000
00000000
00000000
0003FC00
0003FC00
000FE000
000FC000
003F0000
003E0000
00FC0000
00F80000
00000000
00000000
00000000
00000000
00000000
00000000
00000000
00000000
00000000
00000000
00000000
00000000
00000000
00000000
00000000
00000000
00000000
00000000
00000000
00000000
00000000
00000000
00000000
00000000
00000000
00000000
00000000
00000000
00000000
00000000
00000000
00000000
00000000
00000000
00000000
00000000
00000000
00000000
ENDCHAR

STARTCHAR mu
ENCODING 181
SWIDTH 565 0
DWIDTH 30 0
BBX 30 50 0 -10
BITMAP
00000000
00000000
00000000
00000000
00000000
00000000
00000000
00000000
00000000
00000000
00000000
00000000
00000000
00000000
00000000
00000000
07F81FE0
07F81FE0
01F807E0
01F807E0
01F807E0
01F807E0
01F807E0
01F807E0
01F80780
01F80780
01E01F80
01E01F80
07E01F80
07E01F80
07E01F80
07E01F80
07E01F80
07E01F80
07E03F00
07E03F00
1FFFFF00
1FFFFFE0
1EFFCFE0
1EFFCFE0
1E000000
1E000000
3E000000
3E000000
3E000000
3E000000
3E000000
3E000000
00000000
00000000
ENDCHAR

STARTCHAR paragraph
ENCODING 182
SWIDTH 565 0
DWIDTH 30 0
BBX 30 50 0 -10
BITMAP
00000000
00000000
00000000
00000000
00000000
00000000
00000000
00000000
00000000
00000000
00FFFFC0
00FFFFC0
0FFFFFC0
0FFFFFC0
3FFC0F00
3FFC0F00
3FFC0F00
3FFC0F00
3FFC0F00
3FFC0F00
3FFC0F00
3FFC0F00
3FFC0F00
3FFC0F00
0FFC0F00
0FFC0F00
00FC0F00
00FC0F00
003C0F00
003C0F00
003C0F00
003C0F00
003C0F00
003C0F00
003C0F00
003C0F00
003C0F00
003C0F00
003C0F00
003C0F00
003C0F00
003C0F00
003C0F00
003C0F00
003C0F00
003C0F00
00000000
00000000
00000000
00000000
ENDCHAR

STARTCHAR periodcentered
ENCODING 183
SWIDTH 565 0
DWIDTH 30 0
BBX 30 50 0 -10
BITMAP
00000000
00000000
00000000
00000000
00000000
00000000
00000000
00000000
00000000
00000000
00000000
00000000
00000000
00000000
00000000
00000000
00000000
00000000
00000000
00000000
00000000
00000000
000FC000
000FC000
003FF000
003FF000
003FF000
003FF000
003FF000
003FF000
000FC000
000FC000
00000000
00000000
00000000
00000000
00000000
00000000
00000000
00000000
00000000
00000000
00000000
00000000
00000000
00000000
00000000
00000000
00000000
00000000
ENDCHAR

STARTCHAR cedilla
ENCODING 184
SWIDTH 565 0
DWIDTH 30 0
BBX 30 50 0 -10
BITMAP
00000000
00000000
00000000
00000000
00000000
00000000
00000000
00000000
00000000
00000000
00000000
00000000
00000000
00000000
00000000
00000000
00000000
00000000
00000000
00000000
00000000
00000000
00000000
00000000
00000000
00000000
00000000
00000000
00000000
00000000
00000000
00000000
00000000
00000000
00000000
00000000
00000000
00000000
00030000
00030000
0003F000
0003FC00
0003FE00
00007E00
00381E00
003C1E00
003FFE00
003FFC00
000FF800
00000000
ENDCHAR

STARTCHAR onesuperior
ENCODING 185
SWIDTH 565 0
DWIDTH 30 0
BBX 30 50 0 -10
BITMAP
00000000
00000000
00000000
00000000
00FFC000
00FFC000
000FC000
000FC000
000FC000
000FC000
000FC000
000FC000
000FC000
000FC000
000FC000
000FC000
000FC000
000FC000
000FC000
000FC000
000FC000
000FC000
03FFFF00
03FFFF00
00000000
00000000
00000000
00000000
00000000
00000000
00000000
00000000
00000000
00000000
00000000
00000000
00000000
00000000
00000000
00000000
00000000
00000000
00000000
00000000
00000000
00000000
00000000
00000000
00000000
00000000
ENDCHAR

STARTCHAR ordmasculine
ENCODING 186
SWIDTH 565 0
DWIDTH 30 0
BBX 30 50 0 -10
BITMAP
00000000
00000000
00000000
00000000
003FC000
003FC000
03FFFC00
03FFFC00
03E07C00
03C03C00
0FC03F00
0FC03F00
0FC03F00
0FC03F00
0FC03F00
0FC03F00
0FC03F00
0FC03F00
03C03C00
03E07C00
03FFFC00
03FFFC00
003FC000
003FC000
00000000
00000000
0FFFFF00
0FFFFF00
0FFFFF00
0FFFFF00
00000000
00000000
00000000
00000000
00000000
00000000
00000000
00000000
00000000
00000000
00000000
00000000
00000000
00000000
00000000
00000000
00000000
00000000
00000000
00000000
ENDCHAR

STARTCHAR guillemotright
ENCODING 187
SWIDTH 565 0
DWIDTH 30 0
BBX 30 50 0 -10
BITMAP
00000000
00000000
00000000
00000000
00000000
00000000
00000000
00000000
00000000
00000000
00000000
00000000
00000000
00000000
00000000
00000000
00000000
00000000
00000000
00000000
0300C000
0300C000
03C0F000
03C0F000
03F0FC00
03F0FC00
00FC3F00
007C1F00
003E0F80
003E0F80
003E0F80
007E1F80
007C1F00
00FC3F00
03F0FC00
03F0FC00
03C0F000
03C0F000
0300C000
0300C000
00000000
00000000
00000000
00000000
00000000
00000000
00000000
00000000
00000000
00000000
ENDCHAR

STARTCHAR onequarter
ENCODING 188
SWIDTH 565 0
DWIDTH 30 0
BBX 30 50 0 -10
BITMAP
00000000
00000000
00000000
00000000
00000000
00000000
00000000
00000000
3FF00000
3FF00000
03F00000
03F00000
03F00000
03F00000
03F00000
03F00000
03F00000
03F00000
03F00000
03F00000
03F00000
03F00380
03F007C0
03F00F80
3FFF1F00
3FFF3E00
00007C00
0001F800
0003E000
0007C000
001F83F0
003E03F0
007C0FF0
00F80FF0
01F03FF0
03E03FF0
07C0F3F0
0F80F3F0
0003C3F0
0003C3F0
000FFFFC
000FFFFC
000FFFFC
000FFFFC
000003F0
000003F0
000003F0
000003F0
00000000
00000000
ENDCHAR

STARTCHAR onehalf
ENCODING 189
SWIDTH 565 0
DWIDTH 30 0
BBX 30 50 0 -10
BITMAP
00000000
00000000
00000000
00000000
00000000
00000000
00000000
00000000
3FF00000
3FF00000
03F00000
03F00000
03F00000
03F00000
03F00000
03F00000
03F00000
03F00000
03F00000
03F00000
03F00000
03F001C0
03F003C0
03F00FC0
3FFF1F80
3FFF7F00
0000FC00
0001F800
0007E000
000FC000
003F3FE0
007E3FF0
00F8F9F8
01F0F0F8
07E0F0F8
0FC0F0F8
1F0000F8
1E0001F8
000003F0
000007E0
00000F80
00001F00
00003E38
00007E38
0000FFF8
0000FFF8
0000FFF8
0000FFF8
00000000
00000000
ENDCHAR

STARTCHAR threequarters
ENCODING 190
SWIDTH 565 0
DWIDTH 30 0
BBX 30 50 0 -10
BITMAP
00000000
00000000
00000000
00000000
00000000
00000000
00000000
00000000
0FFC0000
0FFC0000
3C3F0000
3C1F0000
3C1F0000
3C1F0000
001F0000
003F0000
03FC0000
03FC0000
001F0000
001F0000
001F0000
001F0000
3C1F01C0
3C3F07C0
0FFC0FC0
0FFC3F80
00007E00
0001FC00
0003F000
000FE000
001F83F0
007F03F0
00FC0FF0
03F80FF0
07E03FF0
0FC03FF0
3F00F3F0
3E00F3F0
0003C3F0
0003C3F0
000FFFFC
000FFFFC
000FFFFC
000FFFFC
000003F0
000003F0
000003F0
000003F0
00000000
00000000
ENDCHAR

STARTCHAR questiondown
ENCODING 191
SWIDTH 565 0
DWIDTH 30 0
BBX 30 50 0 -10
BITMAP
00000000
00000000
00000000
00000000
00000000
00000000
00000000
00000000
00000000
00000000
00000000
00000000
00000000
00000000
00000000
00000000
0001F800
0001F800
0007FE00
0007FE00
0007FE00
0007FE00
0001F800
0001F800
00000000
00000000
0001F800
0001F800
0001F800
0001F800
001FE000
001FE000
01FE0000
01FE0000
01F80000
01F80000
07E00000
07E00000
07E00000
07E00000
07E007C0
07E007C0
01F80FC0
01FFFFC0
007FFE00
007FFE00
00000000
00000000
00000000
00000000
ENDCHAR

STARTCHAR Agrave
ENCODING 192
SWIDTH 565 0
DWIDTH 30 0
BBX 30 50 0 -10
BITMAP
03F80000
03FC0000
00FE0000
007F0000
001F8000
000FC000
0007E000
0003F000
00000000
00000000
000FC000
000FC000
000FC000
000FC000
003FF000
003FF000
003CF000
003CF000
003CF000
00FCFC00
00F87C00
00F87C00
00F87C00
00F87C00
03F87F00
03F03F00
03F03F00
03F03F00
03FFFF00
07FFFF80
07FFFF80
07C00F80
07C00F80
07C00F80
0FC00FC0
0FC00FC0
0F8007C0
0F8007C0
3FE01FF0
3FE01FF0
00000000
00000000
00000000
00000000
00000000
00000000
00000000
00000000
00000000
00000000
ENDCHAR

STARTCHAR Aacute
ENCODING 193
SWIDTH 565 0
DWIDTH 30 0
BBX 30 50 0 -10
BITMAP
00003FC0
00007F00
0000FE00
0001F800
0003F000
0007E000
000FC000
00000000
00000000
00000000
000FC000
000FC000
000FC000
000FC000
003FF000
003FF000
003CF000
003CF000
003CF000
00FCFC00
00F87C00
00F87C00
00F87C00
00F87C00
03F87F00
03F03F00
03F03F00
03F03F00
03FFFF00
07FFFF80
07FFFF80
07C00F80
07C00F80
07C00F80
0FC00FC0
0FC00FC0
0F8007C0
0F8007C0
3FE01FF0
3FE01FF0
00000000
00000000
00000000
00000000
00000000
00000000
00000000
00000000
00000000
00000000
ENDCHAR

STARTCHAR Acircumflex
ENCODING 194
SWIDTH 565 0
DWIDTH 30 0
BBX 30 50 0 -10
BITMAP
00030000
00030000
001FE000
001FE000
00FFFC00
00FCFC00
03F03F00
03F03F00
00000000
00000000
000FC000
000FC000
000FC000
000FC000
003FF000
003FF000
003CF000
003CF000
003CF000
00FCFC00
00F87C00
00F87C00
00F87C00
00F87C00
03F87F00
03F03F00
03F03F00
03F03F00
03FFFF00
07FFFF80
07FFFF80
07C00F80
07C00F80
07C00F80
0FC00FC0
0FC00FC0
0F8007C0
0F8007C0
3FE01FF0
3FE01FF0
00000000
00000000
00000000
00000000
00000000
00000000
00000000
00000000
00000000
00000000
ENDCHAR

STARTCHAR Atilde
ENCODING 195
SWIDTH 565 0
DWIDTH 30 0
BBX 30 50 0 -10
BITMAP
00FC0300
00FC0300
03FFC300
03FFC300
030FFF00
030FFF00
0300FC00
0300FC00
00000000
00000000
000FC000
000FC000
000FC000
000FC000
003FF000
003FF000
003CF000
003CF000
003CF000
00FCFC00
00F87C00
00F87C00
00F87C00
00F87C00
03F87F00
03F03F00
03F03F00
03F03F00
03FFFF00
07FFFF80
07FFFF80
07C00F80
07C00F80
07C00F80
0FC00FC0
0FC00FC0
0F8007C0
0F8007C0
3FE01FF0
3FE01FF0
00000000
00000000
00000000
00000000
00000000
00000000
00000000
00000000
00000000
00000000
ENDCHAR

STARTCHAR Adieresis
ENCODING 196
SWIDTH 565 0
DWIDTH 30 0
BBX 30 50 0 -10
BITMAP
00000000
00000000
01E01E00
03F03F00
03F03F00
03F03F00
03F03F00
01E01E00
00000000
00000000
000FC000
000FC000
000FC000
000FC000
003FF000
003FF000
003CF000
003CF000
003CF000
00FCFC00
00F87C00
00F87C00
00F87C00
00F87C00
03F87F00
03F03F00
03F03F00
03F03F00
03FFFF00
07FFFF80
07FFFF80
07C00F80
07C00F80
07C00F80
0FC00FC0
0FC00FC0
0F8007C0
0F8007C0
3FE01FF0
3FE01FF0
00000000
00000000
00000000
00000000
00000000
00000000
00000000
00000000
00000000
00000000
ENDCHAR

STARTCHAR Aring
ENCODING 197
SWIDTH 565 0
DWIDTH 30 0
BBX 30 50 0 -10
BITMAP
003FF000
003FF000
00F87C00
00F03C00
00F03C00
00F87C00
003FF000
003FF000
00000000
00000000
000FC000
000FC000
000FC000
000FC000
003FF000
003FF000
003CF000
003CF000
003CF000
00FCFC00
00F87C00
00F87C00
00F87C00
00F87C00
03F87F00
03F03F00
03F03F00
03F03F00
03FFFF00
07FFFF80
07FFFF80
07C00F80
07C00F80
07C00F80
0FC00FC0
0FC00FC0
0F8007C0
0F8007C0
3FE01FF0
3FE01FF0
00000000
00000000
00000000
00000000
00000000
00000000
00000000
00000000
00000000
00000000
ENDCHAR

STARTCHAR AE
ENCODING 198
SWIDTH 565 0
DWIDTH 30 0
BBX 30 50 0 -10
BITMAP
00000000
00000000
00000000
00000000
00000000
00000000
00000000
00000000
00000000
00000000
003FFFF8
003FFFF8
003FF078
003FF078
00FBF078
00FBF078
00FBF078
00FBF000
00F3F000
00F3F000
03E3F0C0
03E3F0C0
03E3F0C0
03E3F0C0
03E3FFC0
03C3FFC0
0F83F0C0
0F83F0C0
0FFFF0C0
0FFFF0C0
3E03F000
3E03F000
3E03F000
3E03F078
3C03F078
3C03F078
3C03F078
FC03F078
FF0FFFF8
FF0FFFF8
00000000
00000000
00000000
00000000
00000000
00000000
00000000
00000000
00000000
00000000
ENDCHAR

STARTCHAR Ccedilla
ENCODING 199
SWIDTH 565 0
DWIDTH 30 0
BBX 30 50 0 -10
BITMAP
00000000
00000000
00000000
00000000
00000000
00000000
00000000
00000000
00000000
00000000
007FF9E0
007FF9E0
07F81FE0
07F81FE0
07E007E0
07E007E0
1F8001E0
1F8001E0
1F8001E0
1F8001E0
1F800000
1F800000
1F800000
1F800000
1F800000
1F800000
1F800000
1F800000
1F800000
1F800000
1F800000
1F800000
1F8001E0
1F8001E0
07E001E0
07E001E0
07F807E0
07F80FE0
007FFE00
007FFC00
00030000
00030000
0003E000
0003F000
00003C00
00003C00
00F07C00
00FFFC00
003FF000
00000000
ENDCHAR

STARTCHAR Egrave
ENCODING 200
SWIDTH 565 0
DWIDTH 30 0
BBX 30 50 0 -10
BITMAP
01FE0000
007F0000
003F8000
000FC000
0007E000
0003F000
0001F800
00000000
00000000
00000000
0FFFFFC0
0FFFFFC0
03F003C0
03F003C0
03F003C0
03F003C0
03F003C0
03F00000
03F00000
03F00000
03F03800
03F03800
03F03800
03F03800
03FFF800
03FFF800
03F03800
03F03800
03F03800
03F03800
03F00000
03F00000
03F003C0
03F003C0
03F003C0
03F003C0
03F003C0
03F003C0
0FFFFFC0
0FFFFFC0
00000000
00000000
00000000
00000000
00000000
00000000
00000000
00000000
00000000
00000000
ENDCHAR

STARTCHAR Eacute
ENCODING 201
SWIDTH 565 0
DWIDTH 30 0
BBX 30 50 0 -10
BITMAP
00003FC0
00007F00
0000FE00
0001F800
0003F000
0007E000
000FC000
00000000
00000000
00000000
0FFFFFC0
0FFFFFC0
03F003C0
03F003C0
03F003C0
03F003C0
03F003C0
03F00000
03F00000
03F00000
03F03800
03F03800
03F03800
03F03800
03FFF800
03FFF800
03F03800
03F03800
03F03800
03F03800
03F00000
03F00000
03F003C0
03F003C0
03F003C0
03F003C0
03F003C0
03F003C0
0FFFFFC0
0FFFFFC0
00000000
00000000
00000000
00000000
00000000
00000000
00000000
00000000
00000000
00000000
ENDCHAR

STARTCHAR Ecircumflex
ENCODING 202
SWIDTH 565 0
DWIDTH 30 0
BBX 30 50 0 -10
BITMAP
00018000
000FF000
000FF000
007FFE00
007E7E00
01F81F80
01F81F80
00000000
00000000
00000000
0FFFFFC0
0FFFFFC0
03F003C0
03F003C0
03F003C0
03F003C0
03F003C0
03F00000
03F00000
03F00000
03F03800
03F03800
03F03800
03F03800
03FFF800
03FFF800
03F03800
03F03800
03F03800
03F03800
03F00000
03F00000
03F003C0
03F003C0
03F003C0
03F003C0
03F003C0
03F003C0
0FFFFFC0
0FFFFFC0
00000000
00000000
00000000
00000000
00000000
00000000
00000000
00000000
00000000
00000000
ENDCHAR

STARTCHAR Edieresis
ENCODING 203
SWIDTH 565 0
DWIDTH 30 0
BBX 30 50 0 -10
BITMAP
00781E00
00FC3F00
00FC3F00
00FC3F00
00FC3F00
00781E00
00000000
00000000
00000000
00000000
0FFFFFC0
0FFFFFC0
03F003C0
03F003C0
03F003C0
03F003C0
03F003C0
03F00000
03F00000
03F00000
03F03800
03F03800
03F03800
03F03800
03FFF800
03FFF800
03F03800
03F03800
03F03800
03F03800
03F00000
03F00000
03F003C0
03F003C0
03F003C0
03F003C0
03F003C0
03F003C0
0FFFFFC0
0FFFFFC0
00000000
00000000
00000000
00000000
00000000
00000000
00000000
00000000
00000000
00000000
ENDCHAR

STARTCHAR Igrave
ENCODING 204
SWIDTH 565 0
DWIDTH 30 0
BBX 30 50 0 -10
BITMAP
03FC0000
00FE0000
007F0000
001F8000
000FC000
0007E000
0003F000
00000000
00000000
00000000
03FFFF00
03FFFF00
000FC000
000FC000
000FC000
000FC000
000FC000
000FC000
000FC000
000FC000
000FC000
000FC000
000FC000
000FC000
000FC000
000FC000
000FC000
000FC000
000FC000
000FC000
000FC000
000FC000
000FC000
000FC000
000FC000
000FC000
000FC000
000FC000
03FFFF00
03FFFF00
00000000
00000000
00000000
00000000
00000000
00000000
00000000
00000000
00000000
00000000
ENDCHAR

STARTCHAR Iacute
ENCODING 205
SWIDTH 565 0
DWIDTH 30 0
BBX 30 50 0 -10
BITMAP
00003FC0
00007F00
0000FE00
0001F800
0003F000
0007E000
000FC000
00000000
00000000
00000000
03FFFF00
03FFFF00
000FC000
000FC000
000FC000
000FC000
000FC000
000FC000
000FC000
000FC000
000FC000
000FC000
000FC000
000FC000
000FC000
000FC000
000FC000
000FC000
000FC000
000FC000
000FC000
000FC000
000FC000
000FC000
000FC000
000FC000
000FC000
000FC000
03FFFF00
03FFFF00
00000000
00000000
00000000
00000000
00000000
00000000
00000000
00000000
00000000
00000000
ENDCHAR

STARTCHAR Icircumflex
ENCODING 206
SWIDTH 565 0
DWIDTH 30 0
BBX 30 50 0 -10
BITMAP
00030000
001FE000
001FE000
00FFFC00
00FCFC00
03F03F00
03F03F00
00000000
00000000
00000000
03FFFF00
03FFFF00
000FC000
000FC000
000FC000
000FC000
000FC000
000FC000
000FC000
000FC000
000FC000
000FC000
000FC000
000FC000
000FC000
000FC000
000FC000
000FC000
000FC000
000FC000
000FC000
000FC000
000FC000
000FC000
000FC000
000FC000
000FC000
000FC000
03FFFF00
03FFFF00
00000000
00000000
00000000
00000000
00000000
00000000
00000000
00000000
00000000
00000000
ENDCHAR

STARTCHAR Idieresis
ENCODING 207
SWIDTH 565 0
DWIDTH 30 0
BBX 30 50 0 -10
BITMAP
01E01E00
03F03F00
03F03F00
03F03F00
03F03F00
01E01E00
00000000
00000000
00000000
00000000
03FFFF00
03FFFF00
000FC000
000FC000
000FC000
000FC000
000FC000
000FC000
000FC000
000FC000
000FC000
000FC000
000FC000
000FC000
000FC000
000FC000
000FC000
000FC000
000FC000
000FC000
000FC000
000FC000
000FC000
000FC000
000FC000
000FC000
000FC000
000FC000
03FFFF00
03FFFF00
00000000
00000000
00000000
00000000
00000000
00000000
00000000
00000000
00000000
00000000
ENDCHAR

STARTCHAR Eth
ENCODING 208
SWIDTH 565 0
DWIDTH 30 0
BBX 30 50 0 -10
BITMAP
00000000
00000000
00000000
00000000
00000000
00000000
00000000
00000000
00000000
00000000
0FFFFC00
0FFFFC00
03F00FC0
03F00FC0
03F00FC0
03F00FC0
03F003F0
03F003F0
03F003F0
03F003F0
03F003F0
03F003F0
03F003F0
3FFFC3F0
3FFFC3F0
3FFFC3F0
03F003F0
03F003F0
03F003F0
03F003F0
03F003F0
03F003F0
03F003F0
03F003F0
03F00FC0
03F00FC0
03F00FC0
03F00FC0
0FFFFC00
0FFFFC00
00000000
00000000
00000000
00000000
00000000
00000000
00000000
00000000
00000000
00000000
ENDCHAR

STARTCHAR Ntilde
ENCODING 209
SWIDTH 565 0
DWIDTH 30 0
BBX 30 50 0 -10
BITMAP
00FC0300
00FC0300
03FFC300
03FFC300
030FFF00
030FFF00
0300FC00
0300FC00
00000000
00000000
3FE03FF0
3FE03FF0
0FE00FC0
0FE00FC0
0FF80FC0
0FF80FC0
0FF80FC0
0FF80FC0
0FFE0FC0
0FCE0FC0
0FCE0FC0
0FCE0FC0
0FCF8FC0
0FC38FC0
0FC38FC0
0FC38FC0
0FC38FC0
0FC0EFC0
0FC0EFC0
0FC0EFC0
0FC0EFC0
0FC0FFC0
0FC03FC0
0FC03FC0
0FC03FC0
0FC03FC0
0FC03FC0
0FC01FC0
3FF01FC0
3FF01FC0
00000000
00000000
00000000
00000000
00000000
00000000
00000000
00000000
00000000
00000000
ENDCHAR

STARTCHAR Ograve
ENCODING 210
SWIDTH 565 0
DWIDTH 30 0
BBX 30 50 0 -10
BITMAP
01FE0000
007F0000
003F8000
000FC000
0007E000
0003F000
0001F800
00000000
00000000
00000000
007FF800
007FF800
07E01F80
07E01F80
07E01F80
07E01F80
1F8007E0
1F8007E0
1F8007E0
1F8007E0
1F8007E0
1F8007E0
1F8007E0
1F8007E0
1F8007E0
1F8007E0
1F8007E0
1F8007E0
1F8007E0
1F8007E0
1F8007E0
1F8007E0
1F8007E0
1F8007E0
07E01F80
07E01F80
07E01F80
07E01F80
007FF800
007FF800
00000000
00000000
00000000
00000000
00000000
00000000
00000000
00000000
00000000
00000000
ENDCHAR

STARTCHAR Oacute
ENCODING 211
SWIDTH 565 0
DWIDTH 30 0
BBX 30 50 0 -10
BITMAP
00003FC0
00007F00
0000FE00
0001F800
0003F000
0007E000
000FC000
00000000
00000000
00000000
007FF800
007FF800
07E01F80
07E01F80
07E01F80
07E01F80
1F8007E0
1F8007E0
1F8007E0
1F8007E0
1F8007E0
1F8007E0
1F8007E0
1F8007E0
1F8007E0
1F8007E0
1F8007E0
1F8007E0
1F8007E0
1F8007E0
1F8007E0
1F8007E0
1F8007E0
1F8007E0
07E01F80
07E01F80
07E01F80
07E01F80
007FF800
007FF800
00000000
00000000
00000000
00000000
00000000
00000000
00000000
00000000
00000000
00000000
ENDCHAR

STARTCHAR Ocircumflex
ENCODING 212
SWIDTH 565 0
DWIDTH 30 0
BBX 30 50 0 -10
BITMAP
00030000
001FE000
001FE000
00FFFC00
00FCFC00
03F03F00
03F03F00
00000000
00000000
00000000
007FF800
007FF800
07E01F80
07E01F80
07E01F80
07E01F80
1F8007E0
1F8007E0
1F8007E0
1F8007E0
1F8007E0
1F8007E0
1F8007E0
1F8007E0
1F8007E0
1F8007E0
1F8007E0
1F8007E0
1F8007E0
1F8007E0
1F8007E0
1F8007E0
1F8007E0
1F8007E0
07E01F80
07E01F80
07E01F80
07E01F80
007FF800
007FF800
00000000
00000000
00000000
00000000
00000000
00000000
00000000
00000000
00000000
00000000
ENDCHAR

STARTCHAR Otilde
ENCODING 213
SWIDTH 565 0
DWIDTH 30 0
BBX 30 50 0 -10
BITMAP
00FC0300
00FC0300
03FFC300
03FFC300
030FFF00
030FFF00
0300FC00
0300FC00
00000000
00000000
007FF800
007FF800
07E01F80
07E01F80
07E01F80
07E01F80
1F8007E0
1F8007E0
1F8007E0
1F8007E0
1F8007E0
1F8007E0
1F8007E0
1F8007E0
1F8007E0
1F8007E0
1F8007E0
1F8007E0
1F8007E0
1F8007E0
1F8007E0
1F8007E0
1F8007E0
1F8007E0
07E01F80
07E01F80
07E01F80
07E01F80
007FF800
007FF800
00000000
00000000
00000000
00000000
00000000
00000000
00000000
00000000
00000000
00000000
ENDCHAR

STARTCHAR Odieresis
ENCODING 214
SWIDTH 565 0
DWIDTH 30 0
BBX 30 50 0 -10
BITMAP
01E07800
03F0FC00
03F0FC00
03F0FC00
03F0FC00
01E07800
00000000
00000000
00000000
00000000
007FF800
007FF800
07E01F80
07E01F80
07E01F80
07E01F80
1F8007E0
1F8007E0
1F8007E0
1F8007E0
1F8007E0
1F8007E0
1F8007E0
1F8007E0
1F8007E0
1F8007E0
1F8007E0
1F8007E0
1F8007E0
1F8007E0
1F8007E0
1F8007E0
1F8007E0
1F8007E0
07E01F80
07E01F80
07E01F80
07E01F80
007FF800
007FF800
00000000
00000000
00000000
00000000
00000000
00000000
00000000
00000000
00000000
00000000
ENDCHAR

STARTCHAR multiply
ENCODING 215
SWIDTH 565 0
DWIDTH 30 0
BBX 30 50 0 -10
BITMAP
00000000
00000000
00000000
00000000
00000000
00000000
00000000
00000000
00000000
00000000
00000000
00000000
00000000
00000000
00000000
00000000
0F0003C0
0F0003C0
0FC00FC0
0FC00FC0
03F03F00
03F03F00
00FCFC00
00FCFC00
003FF000
003FF000
000FC000
000FC000
003FF000
003FF000
00FCFC00
00FCFC00
03F03F00
03F03F00
0FC00FC0
0FC00FC0
0F0003C0
0F0003C0
00000000
00000000
00000000
00000000
00000000
00000000
00000000
00000000
00000000
00000000
00000000
00000000
ENDCHAR

STARTCHAR Oslash
ENCODING 216
SWIDTH 565 0
DWIDTH 30 0
BBX 30 50 0 -10
BITMAP
00000000
00000000
00000000
00000000
00000000
00000E00
00000E00
00000E00
00000E00
00000E00
03FFFE00
03FFFE00
0FC03F00
0FC03F00
0FC07F00
0FC07F00
3F00FFC0
3F00EFC0
3F00EFC0
3F01CFC0
3F01CFC0
3F03CFC0
3F038FC0
3F078FC0
3F070FC0
3F0F0FC0
3F0E0FC0
3F1E0FC0
3F1C0FC0
3F3C0FC0
3F380FC0
3F380FC0
3F700FC0
3FF00FC0
0FE03F00
0FE03F00
0FC03F00
0FC03F00
0FFFFC00
0FFFFC00
0E000000
0E000000
0E000000
0E000000
0E000000
00000000
00000000
00000000
00000000
00000000
ENDCHAR

STARTCHAR Ugrave
ENCODING 217
SWIDTH 565 0
DWIDTH 30 0
BBX 30 50 0 -10
BITMAP
01FE0000
007F0000
003F8000
000FC000
0007E000
0003F000
0001F800
00000000
00000000
00000000
3FF03FF0
3FF03FF0
0FC00FC0
0FC00FC0
0FC00FC0
0FC00FC0
0FC00FC0
0FC00FC0
0FC00FC0
0FC00FC0
0FC00FC0
0FC00FC0
0FC00FC0
0FC00FC0
0FC00FC0
0FC00FC0
0FC00FC0
0FC00FC0
0FC00FC0
0FC00FC0
0FC00FC0
0FC00FC0
0FC00FC0
0FC00FC0
03F03F00
03F03F00
03F03F00
03F03F00
003FF000
003FF000
00000000
00000000
00000000
00000000
00000000
00000000
00000000
00000000
00000000
00000000
ENDCHAR

STARTCHAR Uacute
ENCODING 218
SWIDTH 565 0
DWIDTH 30 0
BBX 30 50 0 -10
BITMAP
0001FE00
0003F800
0007F000
000FC000
001F8000
003F0000
007E0000
00000000
00000000
00000000
3FF03FF0
3FF03FF0
0FC00FC0
0FC00FC0
0FC00FC0
0FC00FC0
0FC00FC0
0FC00FC0
0FC00FC0
0FC00FC0
0FC00FC0
0FC00FC0
0FC00FC0
0FC00FC0
0FC00FC0
0FC00FC0
0FC00FC0
0FC00FC0
0FC00FC0
0FC00FC0
0FC00FC0
0FC00FC0
0FC00FC0
0FC00FC0
03F03F00
03F03F00
03F03F00
03F03F00
003FF000
003FF000
00000000
00000000
00000000
00000000
00000000
00000000
00000000
00000000
00000000
00000000
ENDCHAR

STARTCHAR Ucircumflex
ENCODING 219
SWIDTH 565 0
DWIDTH 30 0
BBX 30 50 0 -10
BITMAP
00030000
001FE000
001FE000
00FFFC00
00FCFC00
03F03F00
03F03F00
00000000
00000000
00000000
3FF03FF0
3FF03FF0
0FC00FC0
0FC00FC0
0FC00FC0
0FC00FC0
0FC00FC0
0FC00FC0
0FC00FC0
0FC00FC0
0FC00FC0
0FC00FC0
0FC00FC0
0FC00FC0
0FC00FC0
0FC00FC0
0FC00FC0
0FC00FC0
0FC00FC0
0FC00FC0
0FC00FC0
0FC00FC0
0FC00FC0
0FC00FC0
03F03F00
03F03F00
03F03F00
03F03F00
003FF000
003FF000
00000000
00000000
00000000
00000000
00000000
00000000
00000000
00000000
00000000
00000000
ENDCHAR

STARTCHAR Udieresis
ENCODING 220
SWIDTH 565 0
DWIDTH 30 0
BBX 30 50 0 -10
BITMAP
01E01E00
03F03F00
03F03F00
03F03F00
03F03F00
01E01E00
00000000
00000000
00000000
00000000
3FF03FF0
3FF03FF0
0FC00FC0
0FC00FC0
0FC00FC0
0FC00FC0
0FC00FC0
0FC00FC0
0FC00FC0
0FC00FC0
0FC00FC0
0FC00FC0
0FC00FC0
0FC00FC0
0FC00FC0
0FC00FC0
0FC00FC0
0FC00FC0
0FC00FC0
0FC00FC0
0FC00FC0
0FC00FC0
0FC00FC0
0FC00FC0
03F03F00
03F03F00
03F03F00
03F03F00
003FF000
003FF000
00000000
00000000
00000000
00000000
00000000
00000000
00000000
00000000
00000000
00000000
ENDCHAR

STARTCHAR Yacute
ENCODING 221
SWIDTH 565 0
DWIDTH 30 0
BBX 30 50 0 -10
BITMAP
00003FC0
00007F00
0000FE00
0001F800
0003F000
0007E000
000FC000
00000000
00000000
00000000
7FF007F8
7FF007F8
1FC001E0
1FE001E0
07E003C0
07F00780
03F00780
01F80F00
01F81E00
00F81E00
007E7C00
007E7800
003FF800
001FF000
001FE000
000FE000
0007E000
0007E000
0007E000
0007E000
0007E000
0007E000
0007E000
0007E000
0007E000
0007E000
0007E000
0007E000
001FF800
001FF800
00000000
00000000
00000000
00000000
00000000
00000000
00000000
00000000
00000000
00000000
ENDCHAR

STARTCHAR Thorn
ENCODING 222
SWIDTH 565 0
DWIDTH 30 0
BBX 30 50 0 -10
BITMAP
00000000
00000000
00000000
00000000
00000000
00000000
00000000
00000000
00000000
00000000
0FFFC000
0FFFC000
00FC0000
00FC0000
00FC0000
00FC0000
00FFFC00
00FFFC00
00FC0FC0
00FC0FC0
00FC03F0
00FC03F0
00FC03F0
00FC03F0
00FC03F0
00FC03F0
00FC03F0
00FC03F0
00FC03F0
00FC03F0
00FC0FC0
00FC0FC0
00FFFC00
00FFFC00
00FC0000
00FC0000
00FC0000
00FC0000
0FFFC000
0FFFC000
00000000
00000000
00000000
00000000
00000000
00000000
00000000
00000000
00000000
00000000
ENDCHAR

STARTCHAR germandbls
ENCODING 223
SWIDTH 565 0
DWIDTH 30 0
BBX 30 50 0 -10
BITMAP
00000000
00000000
00000000
00000000
00000000
00000000
00000000
00000000
003FFC00
003FFC00
00F00F00
00F00F00
03F00FC0
03F00FC0
03F00FC0
03F00FC0
03F00FC0
03F00FC0
03F00FC0
03F00FC0
03F00F00
03F00F00
03F0FC00
03F0FC00
03F00FC0
03F00FC0
03F003F0
03F003F0
03F003F0
03F003F0
03F003F0
03F003F0
03F003F0
03F003F0
03F003F0
03F003F0
03F00FC0
03F00FC0
FFF3FF00
FFF3FF00
00000000
00000000
00000000
00000000
00000000
00000000
00000000
00000000
00000000
00000000
ENDCHAR

STARTCHAR agrave
ENCODING 224
SWIDTH 565 0
DWIDTH 30 0
BBX 30 50 0 -10
BITMAP
00000000
00000000
00000000
00000000
03F80000
03FC0000
00FE0000
007F0000
001F8000
000FC000
0007E000
0003F000
00000000
00000000
00000000
00000000
00FFF000
00FFF000
03F0FC00
03F0FC00
00003F00
00003F00
00003F00
00003F00
00FFFF00
00FFFF00
03F03F00
03F03F00
0FC03F00
0FC03F00
0FC03F00
0FC03F00
0FC03F00
0FC03F00
0FC03F00
0FC03F00
03F1FF00
03F1FF00
00FF3FC0
00FF3FC0
00000000
00000000
00000000
00000000
00000000
00000000
00000000
00000000
00000000
00000000
ENDCHAR

STARTCHAR aacute
ENCODING 225
SWIDTH 565 0
DWIDTH 30 0
BBX 30 50 0 -10
BITMAP
00000000
00000000
00000000
00000000
00001FC0
00003FC0
00007F00
0000FE00
0001F800
0003F000
0007E000
000FC000
00000000
00000000
00000000
00000000
00FFF000
00FFF000
03F0FC00
03F0FC00
00003F00
00003F00
00003F00
00003F00
00FFFF00
00FFFF00
03F03F00
03F03F00
0FC03F00
0FC03F00
0FC03F00
0FC03F00
0FC03F00
0FC03F00
0FC03F00
0FC03F00
03F1FF00
03F1FF00
00FF3FC0
00FF3FC0
00000000
00000000
00000000
00000000
00000000
00000000
00000000
00000000
00000000
00000000
ENDCHAR

STARTCHAR acircumflex
ENCODING 226
SWIDTH 565 0
DWIDTH 30 0
BBX 30 50 0 -10
BITMAP
00000000
00000000
00000000
00000000
00030000
00030000
001FE000
001FE000
00FFFC00
00FCFC00
03F03F00
03F03F00
00000000
00000000
00000000
00000000
00FFF000
00FFF000
03F0FC00
03F0FC00
00003F00
00003F00
00003F00
00003F00
00FFFF00
00FFFF00
03F03F00
03F03F00
0FC03F00
0FC03F00
0FC03F00
0FC03F00
0FC03F00
0FC03F00
0FC03F00
0FC03F00
03F1FF00
03F1FF00
00FF3FC0
00FF3FC0
00000000
00000000
00000000
00000000
00000000
00000000
00000000
00000000
00000000
00000000
ENDCHAR

STARTCHAR atilde
ENCODING 227
SWIDTH 565 0
DWIDTH 30 0
BBX 30 50 0 -10
BITMAP
00000000
00000000
00000000
00000000
00000000
00000000
00FC0300
00FC0300
03FFC300
03FFC300
030FFF00
030FFF00
0300FC00
0300FC00
00000000
00000000
00FFF000
00FFF000
03F0FC00
03F0FC00
00003F00
00003F00
00003F00
00003F00
00FFFF00
00FFFF00
03F03F00
03F03F00
0FC03F00
0FC03F00
0FC03F00
0FC03F00
0FC03F00
0FC03F00
0FC03F00
0FC03F00
03F1FF00
03F1FF00
00FF3FC0
00FF3FC0
00000000
00000000
00000000
00000000
00000000
00000000
00000000
00000000
00000000
00000000
ENDCHAR

STARTCHAR adieresis
ENCODING 228
SWIDTH 565 0
DWIDTH 30 0
BBX 30 50 0 -10
BITMAP
00000000
00000000
00000000
00000000
00000000
00000000
01E01E00
03F03F00
03F03F00
03F03F00
03F03F00
01E01E00
00000000
00000000
00000000
00000000
00FFF000
00FFF000
03F0FC00
03F0FC00
00003F00
00003F00
00003F00
00003F00
00FFFF00
00FFFF00
03F03F00
03F03F00
0FC03F00
0FC03F00
0FC03F00
0FC03F00
0FC03F00
0FC03F00
0FC03F00
0FC03F00
03F1FF00
03F1FF00
00FF3FC0
00FF3FC0
00000000
00000000
00000000
00000000
00000000
00000000
00000000
00000000
00000000
00000000
ENDCHAR

STARTCHAR aring
ENCODING 229
SWIDTH 565 0
DWIDTH 30 0
BBX 30 50 0 -10
BITMAP
00000000
00000000
003FF000
003FF000
00F87C00
00F03C00
00F03C00
00F03C00
00F03C00
00F87C00
003FF000
003FF000
00000000
00000000
00000000
00000000
00FFF000
00FFF000
03F0FC00
03F0FC00
00003F00
00003F00
00003F00
00003F00
00FFFF00
00FFFF00
03F03F00
03F03F00
0FC03F00
0FC03F00
0FC03F00
0FC03F00
0FC03F00
0FC03F00
0FC03F00
0FC03F00
03F1FF00
03F1FF00
00FF3FC0
00FF3FC0
00000000
00000000
00000000
00000000
00000000
00000000
00000000
00000000
00000000
00000000
ENDCHAR

STARTCHAR ae
ENCODING 230
SWIDTH 565 0
DWIDTH 30 0
BBX 30 50 0 -10
BITMAP
00000000
00000000
00000000
00000000
00000000
00000000
00000000
00000000
00000000
00000000
00000000
00000000
00000000
00000000
00000000
00000000
07FE3FE0
0FFE3FE0
1FFFF9F8
1C0FF9F8
1C07E078
0007E078
0007E078
0007E078
0007E078
0007E078
0FFFFFF8
0FFFFFF8
3FFFE000
7E07E000
7C07E000
7C07E000
7C07E000
7C07E000
7C07E078
7C07E078
7E1FE078
3FFFF0F8
0FF9FFE0
0FF0FFE0
00000000
00000000
00000000
00000000
00000000
00000000
00000000
00000000
00000000
00000000
ENDCHAR

STARTCHAR ccedilla
ENCODING 231
SWIDTH 565 0
DWIDTH 30 0
BBX 30 50 0 -10
BITMAP
00000000
00000000
00000000
00000000
00000000
00000000
00000000
00000000
00000000
00000000
00000000
00000000
00000000
00000000
00000000
00000000
003FF3C0
003FF3C0
03FC3FC0
03FC3FC0
03F00FC0
03F00FC0
0FC003C0
0FC003C0
0FC003C0
0FC003C0
0FC00000
0FC00000
0FC00000
0FC00000
0FC00000
0FC00000
0FC003C0
0FC003C0
03F003C0
03F003C0
03FC0F00
03FC0F00
003FFC00
003FFC00
000E0000
000E0000
000FF000
000FF000
00007C00
00E03C00
00E07C00
00FFF800
003FC000
00000000
ENDCHAR

STARTCHAR egrave
ENCODING 232
SWIDTH 565 0
DWIDTH 30 0
BBX 30 50 0 -10
BITMAP
00000000
00000000
00000000
00000000
01FC0000
01FE0000
007F0000
003F8000
000FC000
0007E000
0003F000
0001F800
00000000
00000000
00000000
00000000
003FFC00
003FFC00
03F03F00
03F03F00
03C00FC0
03C00FC0
0FC00FC0
0FC00FC0
0FC00FC0
0FC00FC0
0FFFFFC0
0FFFFFC0
0FC00000
0FC00000
0FC00000
0FE00000
0FF00000
0FF00000
03F003C0
03F003C0
03FC0FC0
03FC0FC0
003FFF00
003FFF00
00000000
00000000
00000000
00000000
00000000
00000000
00000000
00000000
00000000
00000000
ENDCHAR

STARTCHAR eacute
ENCODING 233
SWIDTH 565 0
DWIDTH 30 0
BBX 30 50 0 -10
BITMAP
00000000
00000000
00000000
00000000
00000FE0
00001FE0
00003F80
00007F00
0000FC00
0001F800
0003F000
0007E000
00000000
00000000
00000000
00000000
003FFC00
003FFC00
03F03F00
03F03F00
03C00FC0
03C00FC0
0FC00FC0
0FC00FC0
0FC00FC0
0FC00FC0
0FFFFFC0
0FFFFFC0
0FC00000
0FC00000
0FC00000
0FE00000
0FF00000
0FF00000
03F003C0
03F003C0
03FC0FC0
03FC0FC0
003FFF00
003FFF00
00000000
00000000
00000000
00000000
00000000
00000000
00000000
00000000
00000000
00000000
ENDCHAR

STARTCHAR ecircumflex
ENCODING 234
SWIDTH 565 0
DWIDTH 30 0
BBX 30 50 0 -10
BITMAP
00000000
00000000
00000000
00000000
00018000
00018000
000FF000
000FF000
007FFE00
007E7E00
01F81F80
01F81F80
00000000
00000000
00000000
00000000
003FFC00
003FFC00
03F03F00
03F03F00
03C00FC0
03C00FC0
0FC00FC0
0FC00FC0
0FC00FC0
0FC00FC0
0FFFFFC0
0FFFFFC0
0FC00000
0FC00000
0FC00000
0FE00000
0FF00000
0FF00000
03F003C0
03F003C0
03FC0FC0
03FC0FC0
003FFF00
003FFF00
00000000
00000000
00000000
00000000
00000000
00000000
00000000
00000000
00000000
00000000
ENDCHAR

STARTCHAR edieresis
ENCODING 235
SWIDTH 565 0
DWIDTH 30 0
BBX 30 50 0 -10
BITMAP
00000000
00000000
00000000
00000000
00000000
00000000
00780780
00FC0FC0
00FC0FC0
00FC0FC0
00FC0FC0
00780780
00000000
00000000
00000000
00000000
003FFC00
003FFC00
03F03F00
03F03F00
03C00FC0
03C00FC0
0FC00FC0
0FC00FC0
0FC00FC0
0FC00FC0
0FFFFFC0
0FFFFFC0
0FC00000
0FC00000
0FC00000
0FE00000
0FF00000
0FF00000
03F003C0
03F003C0
03FC0FC0
03FC0FC0
003FFF00
003FFF00
00000000
00000000
00000000
00000000
00000000
00000000
00000000
00000000
00000000
00000000
ENDCHAR

STARTCHAR igrave
ENCODING 236
SWIDTH 565 0
DWIDTH 30 0
BBX 30 50 0 -10
BITMAP
00000000
00000000
00000000
07F00000
07F80000
01FC0000
00FE0000
003F0000
001F8000
000FC000
0007E000
00000000
00000000
00000000
00000000
00000000
01FFE000
01FFE000
0007E000
0007E000
0007E000
0007E000
0007E000
0007E000
0007E000
0007E000
0007E000
0007E000
0007E000
0007E000
0007E000
0007E000
0007E000
0007E000
0007E000
0007E000
0007E000
0007E000
07FFFFE0
07FFFFE0
00000000
00000000
00000000
00000000
00000000
00000000
00000000
00000000
00000000
00000000
ENDCHAR

STARTCHAR iacute
ENCODING 237
SWIDTH 565 0
DWIDTH 30 0
BBX 30 50 0 -10
BITMAP
00000000
00000000
00000000
00000FE0
00001FE0
00003F80
00007F00
0000FC00
0001F800
0003F000
0007E000
00000000
00000000
00000000
00000000
00000000
01FFE000
01FFE000
0007E000
0007E000
0007E000
0007E000
0007E000
0007E000
0007E000
0007E000
0007E000
0007E000
0007E000
0007E000
0007E000
0007E000
0007E000
0007E000
0007E000
0007E000
0007E000
0007E000
07FFFFE0
07FFFFE0
00000000
00000000
00000000
00000000
00000000
00000000
00000000
00000000
00000000
00000000
ENDCHAR

STARTCHAR icircumflex
ENCODING 238
SWIDTH 565 0
DWIDTH 30 0
BBX 30 50 0 -10
BITMAP
00000000
00000000
00000000
00000000
00018000
00018000
000FF000
000FF000
007FFE00
007E7E00
01F81F80
01F81F80
00000000
00000000
00000000
00000000
01FFE000
01FFE000
0007E000
0007E000
0007E000
0007E000
0007E000
0007E000
0007E000
0007E000
0007E000
0007E000
0007E000
0007E000
0007E000
0007E000
0007E000
0007E000
0007E000
0007E000
0007E000
0007E000
07FFFFE0
07FFFFE0
00000000
00000000
00000000
00000000
00000000
00000000
00000000
00000000
00000000
00000000
ENDCHAR

STARTCHAR idieresis
ENCODING 239
SWIDTH 565 0
DWIDTH 30 0
BBX 30 50 0 -10
BITMAP
00000000
00000000
00000000
00000000
00F00F00
01F81F80
01F81F80
01F81F80
01F81F80
00F00F00
00000000
00000000
00000000
00000000
00000000
00000000
01FFE000
01FFE000
0007E000
0007E000
0007E000
0007E000
0007E000
0007E000
0007E000
0007E000
0007E000
0007E000
0007E000
0007E000
0007E000
0007E000
0007E000
0007E000
0007E000
0007E000
0007E000
0007E000
07FFFFE0
07FFFFE0
00000000
00000000
00000000
00000000
00000000
00000000
00000000
00000000
00000000
00000000
ENDCHAR

STARTCHAR eth
ENCODING 240
SWIDTH 565 0
DWIDTH 30 0
BBX 30 50 0 -10
BITMAP
00000000
00000000
00000000
00000000
00000000
00000000
00000700
00FE1F00
00FFBE00
00FFFC00
0007F800
0003F000
0007FC00
000FFC00
001E3E00
003C3E00
00381F00
00000F00
003FFF80
003FFF80
03FFFFC0
03F01FC0
0FC00FC0
0FC00FC0
0FC00FC0
0FC00FC0
0FC00FC0
0FC00FC0
0FC00FC0
0FC00FC0
0FC00FC0
0FC00FC0
0FC00FC0
0FC00FC0
0FC00FC0
0FC00FC0
03F03F00
03F03F00
00FFFC00
00FFFC00
00000000
00000000
00000000
00000000
00000000
00000000
00000000
00000000
00000000
00000000
ENDCHAR

STARTCHAR ntilde
ENCODING 241
SWIDTH 565 0
DWIDTH 30 0
BBX 30 50 0 -10
BITMAP
00000000
00000000
00000000
00000000
00FC0300
00FC0300
03FFC300
03FFC300
030FFF00
030FFF00
0300FC00
0300FC00
00000000
00000000
00000000
00000000
1F87F800
1F8FF800
07F87E00
07F87E00
07E01F80
07E01F80
07E01F80
07E01F80
07E01F80
07E01F80
07E01F80
07E01F80
07E01F80
07E01F80
07E01F80
07E01F80
07E01F80
07E01F80
07E01F80
07E01F80
07E01F80
07E01F80
1FE01FE0
1FE01FE0
00000000
00000000
00000000
00000000
00000000
00000000
00000000
00000000
00000000
00000000
ENDCHAR

STARTCHAR ograve
ENCODING 242
SWIDTH 565 0
DWIDTH 30 0
BBX 30 50 0 -10
BITMAP
00000000
00000000
00000000
00000000
07F00000
07F80000
01FC0000
00FE0000
003F0000
001F8000
000FC000
0007E000
00000000
00000000
00000000
00000000
003FF000
003FF000
03F03F00
03F03F00
03F03F00
03F03F00
0FC00FC0
0FC00FC0
0FC00FC0
0FC00FC0
0FC00FC0
0FC00FC0
0FC00FC0
0FC00FC0
0FC00FC0
0FC00FC0
0FC00FC0
0FC00FC0
03F03F00
03F03F00
03F03F00
03F03F00
003FF000
003FF000
00000000
00000000
00000000
00000000
00000000
00000000
00000000
00000000
00000000
00000000
ENDCHAR

STARTCHAR oacute
ENCODING 243
SWIDTH 565 0
DWIDTH 30 0
BBX 30 50 0 -10
BITMAP
00000000
00000000
00000000
00000000
00001FC0
00003FC0
00007F00
0000FE00
0001F800
0003F000
0007E000
000FC000
00000000
00000000
00000000
00000000
003FF000
003FF000
03F03F00
03F03F00
03F03F00
03F03F00
0FC00FC0
0FC00FC0
0FC00FC0
0FC00FC0
0FC00FC0
0FC00FC0
0FC00FC0
0FC00FC0
0FC00FC0
0FC00FC0
0FC00FC0
0FC00FC0
03F03F00
03F03F00
03F03F00
03F03F00
003FF000
003FF000
00000000
00000000
00000000
00000000
00000000
00000000
00000000
00000000
00000000
00000000
ENDCHAR

STARTCHAR ocircumflex
ENCODING 244
SWIDTH 565 0
DWIDTH 30 0
BBX 30 50 0 -10
BITMAP
00000000
00000000
00000000
00000000
00030000
00030000
001FE000
001FE000
00FFFC00
00FCFC00
03F03F00
03F03F00
00000000
00000000
00000000
00000000
003FF000
003FF000
03F03F00
03F03F00
03F03F00
03F03F00
0FC00FC0
0FC00FC0
0FC00FC0
0FC00FC0
0FC00FC0
0FC00FC0
0FC00FC0
0FC00FC0
0FC00FC0
0FC00FC0
0FC00FC0
0FC00FC0
03F03F00
03F03F00
03F03F00
03F03F00
003FF000
003FF000
00000000
00000000
00000000
00000000
00000000
00000000
00000000
00000000
00000000
00000000
ENDCHAR

STARTCHAR otilde
ENCODING 245
SWIDTH 565 0
DWIDTH 30 0
BBX 30 50 0 -10
BITMAP
00000000
00000000
00000000
00000000
00000000
00000000
00FC0300
00FC0300
03FFC300
03FFC300
030FFF00
030FFF00
0300FC00
0300FC00
00000000
00000000
003FF000
003FF000
03F03F00
03F03F00
03F03F00
03F03F00
0FC00FC0
0FC00FC0
0FC00FC0
0FC00FC0
0FC00FC0
0FC00FC0
0FC00FC0
0FC00FC0
0FC00FC0
0FC00FC0
0FC00FC0
0FC00FC0
03F03F00
03F03F00
03F03F00
03F03F00
003FF000
003FF000
00000000
00000000
00000000
00000000
00000000
00000000
00000000
00000000
00000000
00000000
ENDCHAR

STARTCHAR odieresis
ENCODING 246
SWIDTH 565 0
DWIDTH 30 0
BBX 30 50 0 -10
BITMAP
00000000
00000000
00000000
00000000
00000000
00000000
01E01E00
03F03F00
03F03F00
03F03F00
03F03F00
01E01E00
00000000
00000000
00000000
00000000
003FF000
003FF000
03F03F00
03F03F00
03F03F00
03F03F00
0FC00FC0
0FC00FC0
0FC00FC0
0FC00FC0
0FC00FC0
0FC00FC0
0FC00FC0
0FC00FC0
0FC00FC0
0FC00FC0
0FC00FC0
0FC00FC0
03F03F00
03F03F00
03F03F00
03F03F00
003FF000
003FF000
00000000
00000000
00000000
00000000
00000000
00000000
00000000
00000000
00000000
00000000
ENDCHAR

STARTCHAR divide
ENCODING 247
SWIDTH 565 0
DWIDTH 30 0
BBX 30 50 0 -10
BITMAP
00000000
00000000
00000000
00000000
00000000
00000000
00000000
00000000
00000000
00000000
00000000
00000000
00000000
00000000
000FC000
000FC000
000FC000
000FC000
000FC000
000FC000
00000000
00000000
00000000
00000000
0FFFFFC0
0FFFFFC0
0FFFFFC0
0FFFFFC0
00000000
00000000
00000000
00000000
000FC000
000FC000
000FC000
000FC000
000FC000
000FC000
00000000
00000000
00000000
00000000
00000000
00000000
00000000
00000000
00000000
00000000
00000000
00000000
ENDCHAR

STARTCHAR oslash
ENCODING 248
SWIDTH 565 0
DWIDTH 30 0
BBX 30 50 0 -10
BITMAP
00000000
00000000
00000000
00000000
00000000
00000000
00000000
00000000
00000000
00000000
00000000
00000000
00000000
00000000
000003C0
000003C0
003FFFC0
003FFFC0
03F01F00
03F03F00
03C03F00
03C07F00
0FC0FFC0
0FC0FFC0
0FC1EFC0
0FC3CFC0
0FC3CFC0
0FC78FC0
0FCF0FC0
0FCF0FC0
0FDE0FC0
0FFC0FC0
0FFC0FC0
0FF80FC0
03F00F00
03F00F00
03E03F00
03C03F00
0FFFF000
0FFFF000
0F000000
0F000000
00000000
00000000
00000000
00000000
00000000
00000000
00000000
00000000
ENDCHAR

STARTCHAR ugrave
ENCODING 249
SWIDTH 565 0
DWIDTH 30 0
BBX 30 50 0 -10
BITMAP
00000000
00000000
00000000
00000000
03F80000
03FC0000
00FE0000
007F0000
001F8000
000FC000
0007E000
0003F000
00000000
00000000
00000000
00000000
3FC0FF00
3FC0FF00
0FC03F00
0FC03F00
0FC03F00
0FC03F00
0FC03F00
0FC03F00
0FC03F00
0FC03F00
0FC03F00
0FC03F00
0FC03F00
0FC03F00
0FC03F00
0FC03F00
0FC03F00
0FC03F00
0FC03F00
0FC03F00
0FF0FF00
0FF0FF00
03FF8FF0
03FF0FF0
00000000
00000000
00000000
00000000
00000000
00000000
00000000
00000000
00000000
00000000
ENDCHAR

STARTCHAR uacute
ENCODING 250
SWIDTH 565 0
DWIDTH 30 0
BBX 30 50 0 -10
BITMAP
00000000
00000000
00000000
00000000
00007F00
0000FF00
0001FC00
0003F800
0007E000
000FC000
001F8000
003F0000
00000000
00000000
00000000
00000000
3FC0FF00
3FC0FF00
0FC03F00
0FC03F00
0FC03F00
0FC03F00
0FC03F00
0FC03F00
0FC03F00
0FC03F00
0FC03F00
0FC03F00
0FC03F00
0FC03F00
0FC03F00
0FC03F00
0FC03F00
0FC03F00
0FC03F00
0FC03F00
0FF0FF00
0FF0FF00
03FF8FF0
03FF0FF0
00000000
00000000
00000000
00000000
00000000
00000000
00000000
00000000
00000000
00000000
ENDCHAR

STARTCHAR ucircumflex
ENCODING 251
SWIDTH 565 0
DWIDTH 30 0
BBX 30 50 0 -10
BITMAP
00000000
00000000
00000000
00000000
00060000
00060000
003FC000
003FC000
01FFF800
01F9F800
07E07E00
07E07E00
00000000
00000000
00000000
00000000
3FC0FF00
3FC0FF00
0FC03F00
0FC03F00
0FC03F00
0FC03F00
0FC03F00
0FC03F00
0FC03F00
0FC03F00
0FC03F00
0FC03F00
0FC03F00
0FC03F00
0FC03F00
0FC03F00
0FC03F00
0FC03F00
0FC03F00
0FC03F00
0FF0FF00
0FF0FF00
03FF8FF0
03FF0FF0
00000000
00000000
00000000
00000000
00000000
00000000
00000000
00000000
00000000
00000000
ENDCHAR

STARTCHAR udieresis
ENCODING 252
SWIDTH 565 0
DWIDTH 30 0
BBX 30 50 0 -10
BITMAP
00000000
00000000
00000000
00000000
00000000
00000000
03C03C00
07E07E00
07E07E00
07E07E00
07E07E00
03C03C00
00000000
00000000
00000000
00000000
3FC0FF00
3FC0FF00
0FC03F00
0FC03F00
0FC03F00
0FC03F00
0FC03F00
0FC03F00
0FC03F00
0FC03F00
0FC03F00
0FC03F00
0FC03F00
0FC03F00
0FC03F00
0FC03F00
0FC03F00
0FC03F00
0FC03F00
0FC03F00
0FF0FF00
0FF0FF00
03FF8FF0
03FF0FF0
00000000
00000000
00000000
00000000
00000000
00000000
00000000
00000000
00000000
00000000
ENDCHAR

STARTCHAR yacute
ENCODING 253
SWIDTH 565 0
DWIDTH 30 0
BBX 30 50 0 -10
BITMAP
00000000
00000000
00000000
00000000
00001FC0
00003FC0
00007F00
0000FE00
0001F800
0003F000
0007E000
000FC000
00000000
00000000
00000000
00000000
3FF03FF8
3FF03FF8
0FC007E0
0FC007C0
0FC00F80
0FC00F80
03F00F80
03F01F00
03F01F00
03F01F00
00FC7E00
00FC7C00
00FC7C00
00FCF800
003CF800
003CF800
003FF000
003FE000
000FE000
000FC000
000FC000
000FC000
000FC000
000FC000
003F0000
003F0000
003F0000
003F0000
003F0000
003F0000
03FFC000
03FFC000
00000000
00000000
ENDCHAR

STARTCHAR thorn
ENCODING 254
SWIDTH 565 0
DWIDTH 30 0
BBX 30 50 0 -10
BITMAP
00000000
00000000
00000000
00000000
00000000
00000000
00000000
00000000
7FC00000
7FC00000
0FC00000
0FC00000
0FC00000
0FC00000
0FC00000
0FC00000
0FCFF000
0FCFF000
0FFC3F00
0FFC3F00
0FF00F00
0FF00F00
0FC00FC0
0FC00FC0
0FC00FC0
0FC00FC0
0FC00FC0
0FC00FC0
0FC00FC0
0FC00FC0
0FC00FC0
0FC00FC0
0FC00FC0
0FC00FC0
0FF00F00
0FF00F00
0FFC3F00
0FFC3F00
0FCFF000
0FCFF000
0FC00000
0FC00000
0FC00000
0FC00000
0FC00000
0FC00000
7FF00000
7FF00000
00000000
00000000
ENDCHAR

STARTCHAR ydieresis
ENCODING 255
SWIDTH 565 0
DWIDTH 30 0
BBX 30 50 0 -10
BITMAP
00000000
00000000
00000000
00000000
00000000
00000000
01E01E00
03F03F00
03F03F00
03F03F00
03F03F00
01E01E00
00000000
00000000
00000000
00000000
3FF01FF8
3FF01FF8
0FC007E0
0FC007C0
0FC00F80
0FC00F80
03F00F80
03F01F00
03F01F00
03F01F00
00FC7E00
00FC7C00
00FC7C00
00FCF800
003CF800
003CF800
003FF000
003FE000
000FE000
000FC000
000FC000
000FC000
000FC000
000FC000
003F0000
003F0000
003F0000
003F0000
003F0000
003F0000
03FFC000
03FFC000
00000000
00000000
ENDCHAR
ENDFONT
